<?xml version="1.0" standalone="no"?>
<!DOCTYPE svg PUBLIC "-//W3C//DTD SVG 1.1//EN" "http://www.w3.org/Graphics/SVG/1.1/DTD/svg11.dtd" >
<svg>
<metadata>
Created by FontForge 20090914 at Tue Sep 24 09:44:08 2013
 By www-data
&#194;&#169; 1999 Ray Larabie. This font is freeware. Read attached text file for details. Info &#38; updates visit www.larabiefonts.com. Donations gratefully accepted at www.larabiefonts.com/donation.html. Also visit my commercial type foundry at www.typodermic.com. This font was updated in 2004.
</metadata>
<defs>
<font id="CarbonBlock" horiz-adv-x="404" >
  <font-face 
    font-family="Carbon Block"
    font-weight="400"
    font-stretch="normal"
    units-per-em="1000"
    panose-1="0 0 4 0 0 0 0 0 0 0"
    ascent="800"
    descent="-200"
    x-height="584"
    cap-height="584"
    bbox="2 -198 1352 774"
    underline-thickness="20"
    underline-position="-123"
    unicode-range="U+0020-U+2122"
  />
<missing-glyph horiz-adv-x="210" 
 />
    <glyph glyph-name=".notdef" horiz-adv-x="210" 
 />
    <glyph glyph-name="space" unicode=" " horiz-adv-x="210" 
 />
    <glyph glyph-name="exclam" unicode="!" horiz-adv-x="183" 
d="M159 127h-132v457h132v-457zM159 0h-132v94h132v-94z" />
    <glyph glyph-name="quotedbl" unicode="&#x22;" horiz-adv-x="243" 
d="M215 364h-72v220h72v-220zM99 364h-72v220h72v-220z" />
    <glyph glyph-name="numbersign" unicode="#" horiz-adv-x="415" 
d="M405 513l-16 -31h-81l-25 -44h85l-17 -31h-84l-43 -76h-53l43 76h-69l-43 -76h-53l43 76h-82l17 31h81l25 44h-87l17 31h87l43 77h52l-42 -77h69l43 77h52l-42 -77h80zM256 482h-70l-25 -45h70z" />
    <glyph glyph-name="dollar" unicode="$" horiz-adv-x="402" 
d="M387 441c0 -5.33301 -0.166992 -11.667 -0.5 -19s-0.833008 -16 -1.5 -26c-0.666992 -9.33301 -1.16699 -17.666 -1.5 -24.999s-0.5 -13.666 -0.5 -18.999h-136v113c0 12.667 -3.66699 23.834 -11 33.501s-17 14.5 -29 14.5c-29.333 0 -44 -21.667 -44 -65
c0 -31.333 19 -64.333 57 -99l53 -47l53 -47c38 -39.333 57 -78.666 57 -117.999c0 -47.333 -14.333 -81.333 -43 -102c-20.667 -16.667 -57.334 -28 -110.001 -34v-84h-59v84c-52 5.33301 -90 17 -114 35c-28.667 22 -43 57 -43 105c0 5.33301 0.166992 11.666 0.5 18.999
s0.833008 16 1.5 26s1.16699 18.667 1.5 26s0.5 13.333 0.5 18h138c-0.666992 -4 -1.16699 -9.16699 -1.5 -15.5s-1.16602 -13.833 -2.49902 -22.5c-0.666992 -8.66699 -1.16699 -16.334 -1.5 -23.001s-0.5 -12.334 -0.5 -17.001c0 -54 15.667 -81 47 -81
c29.333 0 44 15 44 45c0 3.33301 -0.333008 8.16602 -1 14.499s-1 10.833 -1 13.5c0 26.667 -19 57 -57 91l-53 47l-53 47c-38.667 40.667 -58 81.667 -58 123c0 76.667 51 119.667 153 129v66h59v-66c54 -5.33301 92 -17 114 -35c28.667 -22 43 -57 43 -105z" />
    <glyph glyph-name="percent" unicode="%" horiz-adv-x="700" 
d="M682 184c0 -11.333 -1 -27.333 -3 -48c-2 -21.333 -3 -37.333 -3 -48c0 -67.333 -46 -101 -138 -101c-94.667 0 -142 42 -142 126c0 10.667 1 26.667 3 48c2 20.667 3 36.667 3 48c0 66.667 45.333 100 136 100c96 0 144 -41.667 144 -125zM540 595l-313 -608h-68
l312 608h69zM305 469c0 -11.333 -1 -27.332 -3 -47.999c-2 -21.333 -3 -37.333 -3 -48c0 -67.333 -46 -101 -138 -101c-95.333 0 -143 42.667 -143 128c0 9.33301 1 24.666 3 45.999c2 20.667 3 36.667 3 48c0 67.333 45.667 101 137 101c96 0 144 -42 144 -126z
M568 230.001c0 18.667 -10.333 28 -31 28s-31 -9.33301 -31 -28v-165c0 -18 10.333 -27 31 -27s31 9 31 27v165zM192 351.001v166c0 18 -10.333 27 -31 27s-31 -9 -31 -27v-166c0 -18 10.333 -27 31 -27s31 9 31 27z" />
    <glyph glyph-name="ampersand" unicode="&#x26;" horiz-adv-x="406" 
d="M23 126l-0.00292969 18v11c0 6 0.333008 10.667 1 14c0.666992 9.33301 1.16699 17.666 1.5 24.999s0.5 13.333 0.5 18c0 30 10.667 50.667 32 62c14.667 8.66699 39.334 14.334 74.001 17.001c-70.667 6 -106 36.333 -106 91v102c0 38.667 20.667 68.667 62 90
c32.667 16.667 71 25 115 25c44.667 0 83.334 -8.33301 116.001 -25c42.667 -20.667 64 -50.667 64 -90v-113h-139v120c0 23.333 -13.667 35 -41 35c-26 0 -39 -24.667 -39 -74v-78c0 -34.667 25.667 -52 77 -52h3v-66h-10c-23.333 0 -39.333 -2.33301 -48 -7
c-14.667 -6.66699 -22 -20.667 -22 -42v-111c0 -24.667 13.333 -37 40 -37s40 12.333 40 37v116h139v-113c0 -74.667 -60 -112 -180 -112c-59.333 0 -102.666 8.66699 -129.999 26c-33.333 21.333 -50 59 -50 113z" />
    <glyph glyph-name="quotesingle" unicode="'" horiz-adv-x="129" 
d="M99 364h-72v220h72v-220z" />
    <glyph glyph-name="parenleft" unicode="(" horiz-adv-x="280" 
d="M156 -172c-80 135.333 -120 279.334 -120 432.001c0 153.333 40 297.333 120 432h86c-44 -60 -77 -126.333 -99 -199s-33 -150.334 -33 -233.001c0 -148 44.667 -292 134 -432h-88z" />
    <glyph glyph-name="parenright" unicode=")" horiz-adv-x="278" 
d="M35 -172c24 37.333 44.333 73.002 61 107.002s30.5 68.167 41.5 102.5s18.833 69.666 23.5 105.999s7 75.166 7 116.499c0 86 -11 163.167 -33 231.5s-55.333 135.166 -100 200.499h86c40.667 -68 70.834 -137.5 90.501 -208.5s29.5 -145.5 29.5 -223.5
c0 -77.333 -9.83301 -151.666 -29.5 -222.999s-49.834 -141 -90.501 -209h-86z" />
    <glyph glyph-name="asterisk" unicode="*" horiz-adv-x="246" 
d="M233 466l-67 -20l41 -53l-45 -33l-40 53l-40 -53l-47 31l43 55l-66 20l18 52l66 -21l-1 67h57l-1 -67l65 21z" />
    <glyph glyph-name="plus" unicode="+" horiz-adv-x="255" 
d="M249 214h-94v-98h-55v98h-94v54h94v98h55v-98h94v-54z" />
    <glyph glyph-name="comma" unicode="," horiz-adv-x="199" 
d="M191 88l-95 -192h-79l44 192h130z" />
    <glyph glyph-name="hyphen" unicode="-" horiz-adv-x="220" 
d="M192 202h-165v62h165v-62z" />
    <glyph glyph-name="hyphen" unicode="&#x2010;" horiz-adv-x="220" 
d="M192 202h-165v62h165v-62z" />
    <glyph glyph-name="period" unicode="." horiz-adv-x="182" 
d="M153 0h-126v92h126v-92z" />
    <glyph glyph-name="slash" unicode="/" horiz-adv-x="454" 
d="M452 595l-361 -670h-88l359 670h90z" />
    <glyph glyph-name="zero" unicode="0" horiz-adv-x="411" 
d="M385 99c0 -39.333 -21.332 -69.333 -63.999 -90c-32.667 -16.667 -71.334 -25 -116.001 -25s-83.334 8.33301 -116.001 25c-42.667 20.667 -64 50.667 -64 90v388c0 39.333 21.333 69.333 64 90c32.667 16 71.334 24 116.001 24c44 0 82.667 -8 116 -24
c42.667 -20.667 64 -50.667 64 -90v-388zM246.001 96v398c0 24 -13.667 36 -41 36c-26.667 0 -40 -12 -40 -36v-398c0 -24.667 13.333 -37 40 -37c27.333 0 41 12.333 41 37z" />
    <glyph glyph-name="one" unicode="1" horiz-adv-x="255" 
d="M228 0h-141v468c0 34 -15.333 51 -46 51h-30v65h112c70 0 105 -42.667 105 -128v-456z" />
    <glyph glyph-name="two" unicode="2" horiz-adv-x="403" 
d="M383 0l-359 0.000976562v156c0 32.667 19 66.667 57 102l106 83c40.667 34 61 60 61 78v71c0 25.333 -15.333 38 -46 38c-26.667 0 -40 -12 -40 -36v-123h-138v87c0 96.667 59.333 145 178 145c120.667 0 181 -37.333 181 -112v-89
c0 -30.667 -19.333 -62.334 -58 -95.001l-106 -82c-38 -33.333 -57 -65.333 -57 -96v-58h221v-69z" />
    <glyph glyph-name="three" unicode="3" 
d="M380 123c0 -92.667 -59.001 -138.999 -177.001 -138.999c-120 0 -180 37.333 -180 112v116h139v-119c0 -24.667 13.333 -37 40 -37s40 12.333 40 37v114c0 21.333 -7.33301 35.333 -22 42c-8.66699 4.66699 -24.667 7 -48 7h-10v66h10c46.667 0 70 17.333 70 52l1 80
c0 49.333 -13.333 74 -40 74c-27.333 0 -41 -11.667 -41 -35v-122h-139v115c0 75.333 60 113.666 180 114.999c118 -1.33301 177 -39.666 177 -114.999v-104c0 -54.667 -35.333 -85 -106 -91c34.667 -2.66699 59.334 -8.33398 74.001 -17.001c21.333 -11.333 32 -32 32 -62
v-89z" />
    <glyph glyph-name="four" unicode="4" horiz-adv-x="401" 
d="M373 0h-140v145h-227v65l176 374h191v-584zM239 216v292l-113 -292h113z" />
    <glyph glyph-name="five" unicode="5" horiz-adv-x="405" 
d="M384 99c0 -74.667 -60.333 -112 -181 -112c-118.667 0 -178 48 -178 144v96h138v-131c0 -24 13.333 -36 40 -36c30.667 0 46 16.667 46 50l1 135c0 32 -18 48 -54 48h-171v291h341v-69h-203v-148h81c92 0 138.667 -30.667 140 -92v-176z" />
    <glyph glyph-name="six" unicode="6" horiz-adv-x="395" 
d="M384 133c0 -99.333 -59.001 -149 -177.001 -149c-120.667 0 -181 49.667 -181 149v451h140v-201c5.33301 0.666992 10.333 1.16699 15 1.5s9.33398 0.5 14.001 0.5c126 0 189 -44 189 -132v-120zM251.999 133v127c0 35.333 -28.667 53 -86 53v-219
c0 -22.667 13.667 -34 41 -34c30 0 45 24.333 45 73z" />
    <glyph glyph-name="seven" unicode="7" horiz-adv-x="408" 
d="M398 511l-199 -511h-150l210 513h-243v71h382v-73z" />
    <glyph glyph-name="eight" unicode="8" horiz-adv-x="408" 
d="M384 186v-90c0 -74.667 -60 -112 -180 -112s-180 37.333 -180 112v91c0 62 34.667 100.667 104 116c-69.333 11.333 -104 46 -104 104v83c0 74 60 111 180 111s180 -37 180 -111v-70c0 -66.667 -37.667 -105.667 -113 -117c75.333 -9.33301 113 -48.333 113 -117z
M245 379v118c0 24 -13.667 36 -41 36c-26.667 0 -40 -12 -40 -36v-118c0 -24.667 13.333 -37 40 -37c27.333 0 41 12.333 41 37zM245 93v134c0 25.333 -13.667 38 -41 38c-26.667 0 -40 -12.667 -40 -38v-134c0 -24.667 13.333 -37 40 -37c27.333 0 41 12.333 41 37z" />
    <glyph glyph-name="nine" unicode="9" horiz-adv-x="394" 
d="M10 435c0 99.333 59.001 149 177.001 149c120.667 0 181 -49.667 181 -149v-451h-140v211c-5.33301 -0.666992 -10.333 -1.16699 -15 -1.5s-9.33398 -0.5 -14.001 -0.5c-126 0 -189 44 -189 132v110zM142.001 435v-117c0 -35.333 28.667 -53 86 -53v209
c0 22.667 -13.667 34 -41 34c-30 0 -45 -24.333 -45 -73z" />
    <glyph glyph-name="colon" unicode=":" horiz-adv-x="159" 
d="M153 370h-126v92h126v-92zM153 0h-126v92h126v-92z" />
    <glyph glyph-name="semicolon" unicode=";" horiz-adv-x="203" 
d="M178 370h-126v92h126v-92zM191 88l-96 -192h-79l44 192h131z" />
    <glyph glyph-name="less" unicode="&#x3c;" horiz-adv-x="389" 
d="M374 171l-372 96v31l372 97v-37l-295 -75l295 -76v-36z" />
    <glyph glyph-name="equal" unicode="=" horiz-adv-x="407" 
d="M396 290h-369v66h369v-66zM396 127h-369v66h369v-66z" />
    <glyph glyph-name="greater" unicode="&#x3e;" horiz-adv-x="401" 
d="M399 267l-372 -96v36l295 76l-295 75v37l372 -97v-31z" />
    <glyph glyph-name="question" unicode="?" horiz-adv-x="338" 
d="M323 424c0.666992 -30 -3.33301 -54.3311 -12 -72.998l-42 -62c-28.667 -38.667 -43 -79.334 -43 -122.001v-40h-125v86c0 29.333 16 63.666 48 102.999c32 38.667 48 67.667 48 87v113c0 18 -9.33301 27 -28 27c-19.333 0 -29 -9 -29 -27v-146h-126v138
c0 62 51.333 93 154 93c103.333 0 155 -31 155 -93v-84zM226 0.00195312h-125v94h125v-94z" />
    <glyph glyph-name="at" unicode="@" horiz-adv-x="508" 
d="M186 239v69.999c0 58.667 50.333 88.334 151 89.001h49v91c0 24.667 -43.333 37 -130 37c-100 0 -150 -12.333 -150 -37v-426h380v-63h-460v486c0 76.667 76.667 115 230 115s230 -38.333 230 -115v-232c0 -74 -50 -111 -150 -111s-150 32 -150 96zM266 306.999v-70
c0 -24 23.667 -36 71 -36c32.667 0 49 12 49 36v103h-50c-46.667 0 -70 -11 -70 -33z" />
    <glyph glyph-name="A" unicode="A" horiz-adv-x="414" 
d="M387 1h-139v230h-82v-230h-140v486c0 39.333 21.333 69.333 64 90c34 16 73 24 117 24c43.333 0 82 -8 116 -24c42.667 -20.667 64 -50.667 64 -90v-486zM248 307v183c0 24.667 -13.667 37 -41 37s-41 -12.333 -41 -37v-183h82z" />
    <glyph glyph-name="B" unicode="B" horiz-adv-x="407" 
d="M383 123c0 -92.667 -59 -139 -177 -139c-120.667 0 -181 37.333 -181 112v391c0 76 60.333 114 181 114c118 0 177 -38 177 -114v-85c0 -56 -35.333 -86.333 -106 -91c70.667 -6.66699 106 -33 106 -79v-109zM251 456c0 48.667 -15 73 -45 73
c-27.333 0 -41 -11.667 -41 -35v-152h4c54 0 81 17.333 81 52zM244 93v134c0 20.667 -7 34.667 -21 42c-8.66699 4.66699 -24.667 7 -48 7h-10v-183c0 -24.667 13.333 -37 40 -37c26 0 39 12.333 39 37z" />
    <glyph glyph-name="C" unicode="C" horiz-adv-x="408" 
d="M385 459v-91h-140v129c0 24 -13.333 36 -40 36s-40 -12 -40 -36v-401c0 -24.667 13.333 -37 40 -37s40 12.333 40 37v131h140v-128c0 -76.667 -60 -115 -180 -115s-180 38.333 -180 115v391c0 74 60 111 180 111s180 -47.333 180 -142z" />
    <glyph glyph-name="D" unicode="D" horiz-adv-x="413" 
d="M388 137c0 -91.333 -62 -137 -186 -137h-175v584h176c123.333 0 185 -46 185 -138v-309zM248 109v369c0 25.333 -21 38 -63 38h-19v-445h19c42 0 63 12.667 63 38z" />
    <glyph glyph-name="E" unicode="E" horiz-adv-x="358" 
d="M335 0h-308v583h308v-79h-169v-147h165v-77h-165v-200h169v-80z" />
    <glyph glyph-name="F" unicode="F" horiz-adv-x="342" 
d="M335 504h-169v-147h165v-77h-165v-280h-139v583h308v-79z" />
    <glyph glyph-name="G" unicode="G" horiz-adv-x="411" 
d="M386 0l-73 -0.000976562l-12 36c-31.333 -36 -73.333 -54 -126 -54c-38.667 0 -72.334 10 -101.001 30c-32.667 22.667 -49 52.334 -49 89.001v386c0 38.667 21.667 68.667 65 90c32.667 16 71.334 24 116.001 24c43.333 0 82 -8 116 -24
c42.667 -20.667 64 -50.667 64 -90v-119h-139v126c0 24 -13.667 36 -41 36s-41 -12 -41 -36v-398c0 -24.667 13.667 -37 41 -37s41 12.333 41 37v127h-60v73h199v-296z" />
    <glyph glyph-name="H" unicode="H" horiz-adv-x="412" 
d="M384 0h-139v280h-79v-280h-139v584h139v-223h79v223h139v-584z" />
    <glyph glyph-name="I" unicode="I" horiz-adv-x="194" 
d="M166 0h-139v584h139v-584z" />
    <glyph glyph-name="J" unicode="J" horiz-adv-x="398" 
d="M371 99c0 -74.667 -60.333 -112 -181 -112c-60 0 -104 9 -132 27c-34.667 22 -52 60.333 -52 115v98h144v-131c0 -24.667 13.333 -37 40 -37c27.333 0 41 12.333 41 37v488h140v-485z" />
    <glyph glyph-name="K" unicode="K" horiz-adv-x="437" 
d="M414 0h-147l-101 294v-294h-139v584h139v-259l113 259h135l-115 -267z" />
    <glyph glyph-name="L" unicode="L" horiz-adv-x="341" 
d="M335 0h-308v584h139v-504h169v-80z" />
    <glyph glyph-name="M" unicode="M" horiz-adv-x="635" 
d="M608 0h-139v487c0 24.667 -14 37 -42 37c-26.667 0 -40 -13.333 -40 -40v-484h-140v492c0 9.33301 -4.33301 17 -13 23s-17.667 9 -27 9c-27.333 0 -41 -12.333 -41 -37v-487h-140v484c0 38 21 68 63 90c34 18 72 27 114 27c46.667 0 84.667 -11 114 -33
c32 22 71 33 117 33c41.333 0 79 -9 113 -27c40.667 -22 61 -52 61 -90v-484z" />
    <glyph glyph-name="N" unicode="N" horiz-adv-x="414" 
d="M387 0h-139v490c0 24.667 -13.667 37 -41 37s-41 -12.333 -41 -37v-490h-140v487c0 39.333 21.333 69.333 64 90c34 16 73 24 117 24c43.333 0 82 -8 116 -24c42.667 -20.667 64 -50.667 64 -90v-487z" />
    <glyph glyph-name="O" unicode="O" horiz-adv-x="412" 
d="M386 99c0 -39.333 -21.332 -69.333 -63.999 -90c-32.667 -16.667 -71.334 -25 -116.001 -25s-83.334 8.33301 -116.001 25c-43.333 21.333 -65 51.333 -65 90v388c0 38.667 21.667 68.667 65 90c32.667 16 71.334 24 116.001 24c43.333 0 82 -8 116 -24
c42.667 -20.667 64 -50.667 64 -90v-388zM247.001 96v398c0 24 -13.667 36 -41 36s-41 -12 -41 -36v-398c0 -24.667 13.667 -37 41 -37s41 12.333 41 37z" />
    <glyph glyph-name="P" unicode="P" horiz-adv-x="395" 
d="M384 332c0 -16 -5.66797 -33.667 -17.001 -53c-32 -52.667 -89.333 -79 -172 -79h-14c-8 0 -13 0.333008 -15 1v-201h-140v487c0 38.667 21.667 68.667 65 90c32.667 16 71.334 24 116.001 24c42.667 0 80.667 -8 114 -24c42 -21.333 63 -51.333 63 -90v-155z
M251.999 456c0 48.667 -15 73 -45 73c-27.333 0 -41 -11.667 -41 -35v-222h2h2c54.667 0 82 17.333 82 52v132z" />
    <glyph glyph-name="Q" unicode="Q" horiz-adv-x="416" 
d="M392 -70l-11 0.000976562h-7c-4 0 -7 -0.333008 -9 -1h-27c-27.333 0 -48.333 2.66699 -63 8c-19.333 8 -30.333 25 -33 51c-2 -0.666992 -6.33301 -1 -13 -1h-12c-52.667 0 -95 5.66699 -127 17c-45.333 17.333 -68 49 -68 95v390c0 74 60.333 111 181 111
c120 0 180 -37 180 -111v-390c0 -50.667 -23 -84.334 -69 -101.001h78v-68zM244 96.001v400c0 24 -13.667 36 -41 36s-41 -12 -41 -36v-400c0 -24.667 13.667 -37 41 -37s41 12.333 41 37z" />
    <glyph glyph-name="R" unicode="R" horiz-adv-x="410" 
d="M384 1h-138.999v206c0 32.667 -23 49 -69 49h-10v-255h-140v486c0 39.333 21.333 69.333 64 90c34 16 72.667 24 116 24s81.666 -8 114.999 -24c42 -21.333 63 -51.333 63 -90v-105c0 -56 -35.333 -86.333 -106 -91c70.667 -6 106 -34 106 -84v-206zM252.001 382v74
c0 48.667 -15 73 -45 73c-27.333 0 -41 -11.667 -41 -35v-172h1c56.667 0 85 20 85 60z" />
    <glyph glyph-name="S" unicode="S" horiz-adv-x="412" 
d="M389 459v-71h-136v66c0 52 -16 78 -48 78c-28 0 -42 -14.333 -42 -43v-34c0 -34.667 19.667 -68.667 59 -102l106 -82c38 -33.333 57 -65 57 -95v-80c0 -74.667 -60 -112 -180 -112c-122 0 -183 48.333 -183 145v78h143v-114c0 -24 13.333 -36 40 -36
c30.667 0 46 16.667 46 50v46c0 22 -20.333 49.333 -61 82l-106 83c-38 34.667 -57 68.667 -57 102v70c0 74 59.333 111 178 111c60 0 104 -9 132 -27c34.667 -22 52 -60.333 52 -115z" />
    <glyph glyph-name="T" unicode="T" horiz-adv-x="405" 
d="M392 509h-120v-509h-139v509h-121v75h380v-75z" />
    <glyph glyph-name="U" unicode="U" horiz-adv-x="413" 
d="M387 99c0 -39.333 -21.3311 -69.333 -63.998 -90c-32.667 -16.667 -71.334 -25 -116.001 -25s-83.334 8.33301 -116.001 25c-43.333 21.333 -65 51.333 -65 90v485h140v-488c0 -24.667 13.667 -37 41 -37s41 12.333 41 37v488h139v-485z" />
    <glyph glyph-name="V" unicode="V" horiz-adv-x="455" 
d="M439 584l-114 -584h-200l-109 584h140l73 -476l75 476h135z" />
    <glyph glyph-name="W" unicode="W" horiz-adv-x="635" 
d="M608 102c0 -38.667 -20.333 -69 -61 -91c-33.333 -18 -71 -27 -113 -27c-46 0 -85 11 -117 33c-29.333 -22 -67.333 -33 -114 -33c-41.333 0 -79.333 9 -114 27c-42 22 -63 52.333 -63 91v482h140v-486c0 -24.667 13.667 -37 41 -37c9.33301 0 18.333 3 27 9
s13 13.667 13 23v491h140v-482c0 -27.333 13.333 -41 40 -41c28 0 42 12.333 42 37v486h139v-482z" />
    <glyph glyph-name="X" unicode="X" horiz-adv-x="415" 
d="M388 0h-140v228c0 24.667 -13.667 37 -41 37c-26.667 0 -40 -12.333 -40 -37v-228h-140v225c0 30.667 14.667 56.667 44 78c-29.333 20 -44 46 -44 78v203h140v-206c0 -24.667 13.333 -37 40 -37c27.333 0 41 12.333 41 37v206h140v-203c0 -31.333 -15 -57.333 -45 -78
c30 -21.333 45 -47.333 45 -78v-225z" />
    <glyph glyph-name="Y" unicode="Y" horiz-adv-x="447" 
d="M435 584l-143 -365v-219h-143v219l-137 365h137l78 -255l77 255h131z" />
    <glyph glyph-name="Z" unicode="Z" horiz-adv-x="360" 
d="M336 0h-313v68l164 441h-160v75h309v-69l-162 -440h162v-75z" />
    <glyph glyph-name="bracketleft" unicode="[" horiz-adv-x="269" 
d="M255 -70h-228v654h228v-61h-107v-534h107v-59z" />
    <glyph glyph-name="backslash" unicode="\" horiz-adv-x="455" 
d="M452 -75h-88l-362 670h91z" />
    <glyph glyph-name="bracketright" unicode="]" horiz-adv-x="270" 
d="M242 -70h-228v59h107v534h-107v61h228v-654z" />
    <glyph glyph-name="asciicircum" unicode="^" horiz-adv-x="1414" 
d="M62 293h1v47h67v28h-18v88h18v31h-18v37h439v-46c-4.66699 8.66699 -12.667 13 -24 13c-30.667 0 -46 -25.667 -46 -77c0 -50.667 16 -76 48 -76c10 0 20.333 6.33301 31 19v-17h24v184h374v-26h34v26h360v-524h-1290v293zM938 340v94c0 36 -15.667 54 -47 54
c-16 0 -26.333 -8 -31 -24c-6 16 -15.333 24 -28 24c-11.333 0 -20.333 -8 -27 -24v23h-32v-119h-19v-28h70v28h-19v61c0 15.333 6.33301 23 19 23c10 0 15 -7.66699 15 -23v-89h51v28h-19v61c0 14.667 6.33301 22 19 22c10 0 15 -7.33301 15 -22v-89h33zM986 267h-56v-189
h32v122h3l9 -122h58v189h-32v-122h-3zM480 267v-189h79l11 21v62l-8 14v3l8 14v55l-11 20h-79zM826 247v-148l10 -21h67l12 21v148l-11 20h-68zM271 267v-189h38v83h11v-83h41v76l-15 21v3l15 20v49l-11 20h-79zM256 293h32.999v56c4.66699 -8 12.667 -12 24 -12
c30.667 0 46 25.333 46 76s-16 76 -48 76c-9.33301 0 -19.666 -6.66699 -30.999 -20v18h-24v-194zM474.999 412c0 52 -18.333 78 -55 78c-36 0 -54 -26 -54 -78c0 -50.667 18 -76 54 -76c36.667 0 55 25.333 55 76zM1184 209h38v38l-10 20h-66l-11 -20v-66l12 -20l37 -9v-38
h-10v28h-39v-43l11 -21h65l11 21v72l-13 21l-35 8v33h10v-24zM255.999 78v69l-26 120h-41l-23 -120v-69h37v36h13v-36h40zM463.999 78v69l-24 120h-41l-23 -120v-69h38v36h12v-36h38zM168.999 293h21.001c36.667 4 55 27.667 55 71v123h-33v-91
c0 -17.333 -6.66699 -26 -20 -26c-12.667 0 -19 8.66699 -19 26v91h-32v-85c0 -42.667 15.333 -64 46 -64c9.33301 0 17.666 2.66699 24.999 8c0 -15.333 -9.33301 -23 -28 -23h-15v-30zM678 159h26v33h-26v35h26v40h-64v-189h64v42h-26v39zM786 156h24v33h-24v38h24v40h-63
v-189h39v78zM1064 227v-149h39v149h21v40h-81v-40h21zM685 487h-14.999v-23c-7.33301 17.333 -18.333 26 -33 26c-28.667 0 -43 -14.333 -43 -43c0 -18 7.33301 -30 22 -36c-15.333 -6 -23 -17 -23 -33c0.666992 -28 15.667 -42 45 -42c14.667 0 26.167 4.33301 34.5 13
s12.5 22 12.5 40h-15c-2 -12.667 -10.333 -19 -25 -19c-13.333 0 -20 4.66699 -20 14c0 12 6.66699 18 20 18h10v18h-10c-13.333 0 -20 5.66699 -20 17c0 10.667 6.66699 16 20 16c11.333 0 19.666 -6.66699 24.999 -20h15v54zM1096 485h-15.999v-21
c-8 17.333 -18 26 -30 26c-33.333 0 -50 -26 -50 -78c0 -50 17 -75 51 -75c24 0 39 19.333 45 58h-16c-2 -15.333 -10.333 -23 -25 -23c-15.333 0 -23 13.333 -23 40c0 27.333 7.66699 41 23 41s23.666 -9 24.999 -27h16v59zM151.002 120h-22v147h-38v-189h60v42z
M625.002 78v189h-39v-189h39zM740.002 368l-14 -0.000976562v65c0 13.333 4.66699 20 14 20c4 0 8 -2 12 -6l11 33c-5.33301 4.66699 -11 7.33398 -17 8.00098c-14 0 -24.333 -8 -31 -24v23h-19v-147h44v28zM943.002 486.999v-31h15v-116h34v147h-49zM286.002 436.999
c4 10 11 15 21 15c14 0 21 -12.667 21 -38c0 -28.667 -7.33301 -43 -22 -43c-9.33301 0 -16 5.33301 -20 16v50zM442.002 411.999c0 -26.667 -7.33301 -40 -22 -40c-14 0 -21 13.333 -21 40c0 27.333 7 41 21 41c14.667 0 22 -13.667 22 -41zM553.002 388.999
c-4 -9.33301 -10.667 -14 -20 -14c-14 0 -21 12.667 -21 38c0 28.667 7.33301 43 22 43c8.66699 0 15 -5.33301 19 -16v-51zM63.002 367.999v88h19v-88h-19zM864.002 113.999v119h11v-119h-11zM63.002 486.999v37h19v-37h-19zM203.002 141.999v19l6 50h2l5 -50v-19h-13z
M414.002 141.999v19l5 50h3l4 -50v-19h-12zM519.002 160.999h11v-47h-11v47zM519.002 191.999v41h11v-41h-11zM309.002 191.999v41h11v-41h-11z" />
    <glyph glyph-name="underscore" unicode="_" horiz-adv-x="702" 
d="M675 -191h-648v68h648v-68z" />
    <glyph glyph-name="grave" unicode="`" horiz-adv-x="188" 
d="M170 621h-75l-88 88h117z" />
    <glyph glyph-name="a" unicode="a" horiz-adv-x="414" 
d="M387 0h-139v231h-82v-231h-140v487c0 39.333 21.333 69.333 64 90c34 16 73 24 117 24c43.333 0 82 -8 116 -24c42.667 -20.667 64 -50.667 64 -90v-487zM248 307v183c0 24.667 -13.667 37 -41 37s-41 -12.333 -41 -37v-183h82z" />
    <glyph glyph-name="b" unicode="b" horiz-adv-x="407" 
d="M383 123c0 -92.667 -59 -139 -177 -139c-120.667 0 -181 37.333 -181 112v391c0 76 60.333 114 181 114c118 0 177 -38 177 -114v-85c0 -56 -35.333 -86.333 -106 -91c70.667 -6.66699 106 -33 106 -79v-109zM251 456c0 48.667 -15 73 -45 73
c-27.333 0 -41 -11.667 -41 -35v-152h4c54 0 81 17.333 81 52zM244 93v134c0 20.667 -7 34.667 -21 42c-8.66699 4.66699 -24.667 7 -48 7h-10v-183c0 -24.667 13.333 -37 40 -37c26 0 39 12.333 39 37z" />
    <glyph glyph-name="c" unicode="c" horiz-adv-x="408" 
d="M385 459v-91h-140v129c0 24 -13.333 36 -40 36s-40 -12 -40 -36v-401c0 -24.667 13.333 -37 40 -37s40 12.333 40 37v131h140v-128c0 -76.667 -60 -115 -180 -115s-180 38.333 -180 115v391c0 74 60 111 180 111s180 -47.333 180 -142z" />
    <glyph glyph-name="d" unicode="d" horiz-adv-x="413" 
d="M388 127c0 -84.667 -58.667 -127 -176 -127h-185v584h186c116.667 0 175 -42.667 175 -128v-329zM248 109v369c0 25.333 -21 38 -63 38h-19v-445h19c42 0 63 12.667 63 38z" />
    <glyph glyph-name="e" unicode="e" horiz-adv-x="358" 
d="M335 0h-308v583h308v-79h-169v-147h165v-77h-165v-200h169v-80z" />
    <glyph glyph-name="f" unicode="f" horiz-adv-x="342" 
d="M335 504h-169v-147h165v-77h-165v-280h-139v583h308v-79z" />
    <glyph glyph-name="g" unicode="g" horiz-adv-x="411" 
d="M386 0l-73 -0.000976562l-12 36c-31.333 -36 -73.333 -54 -126 -54c-38.667 0 -72.334 10 -101.001 30c-32.667 22.667 -49 52.334 -49 89.001v386c0 38.667 21.667 68.667 65 90c32.667 16 71.334 24 116.001 24c43.333 0 82 -8 116 -24
c42.667 -20.667 64 -50.667 64 -90v-119h-139v126c0 24 -13.667 36 -41 36s-41 -12 -41 -36v-398c0 -24.667 13.667 -37 41 -37s41 12.333 41 37v127h-60v73h199v-296z" />
    <glyph glyph-name="h" unicode="h" horiz-adv-x="412" 
d="M384 0h-139v280h-79v-280h-139v584h139v-223h79v223h139v-584z" />
    <glyph glyph-name="i" unicode="i" horiz-adv-x="194" 
d="M166 0h-139v584h139v-584z" />
    <glyph glyph-name="j" unicode="j" horiz-adv-x="398" 
d="M371 99c0 -74.667 -60.333 -112 -181 -112c-60 0 -104 9 -132 27c-34.667 22 -52 60.333 -52 115v98h144v-131c0 -24.667 13.333 -37 40 -37c27.333 0 41 12.333 41 37v488h140v-485z" />
    <glyph glyph-name="k" unicode="k" horiz-adv-x="437" 
d="M414 0h-147l-101 294v-294h-139v584h139v-259l113 259h135l-115 -267z" />
    <glyph glyph-name="l" unicode="l" horiz-adv-x="341" 
d="M335 0h-308v584h139v-504h169v-80z" />
    <glyph glyph-name="m" unicode="m" horiz-adv-x="635" 
d="M608 0h-139v487c0 24.667 -14 37 -42 37c-26.667 0 -40 -13.333 -40 -40v-484h-140v492c0 9.33301 -4.33301 17 -13 23s-17.667 9 -27 9c-27.333 0 -41 -12.333 -41 -37v-487h-140v484c0 38 21 68 63 90c34 18 72 27 114 27c46.667 0 84.667 -11 114 -33
c30.667 22 69.667 33 117 33c41.333 0 79 -9 113 -27c40.667 -22 61 -52 61 -90v-484z" />
    <glyph glyph-name="n" unicode="n" horiz-adv-x="414" 
d="M387 0h-139v490c0 24.667 -13.667 37 -41 37s-41 -12.333 -41 -37v-490h-140v487c0 39.333 21.333 69.333 64 90c34 16 73 24 117 24c43.333 0 82 -8 116 -24c42.667 -20.667 64 -50.667 64 -90v-487z" />
    <glyph glyph-name="o" unicode="o" horiz-adv-x="412" 
d="M386 99c0 -39.333 -21.332 -69.333 -63.999 -90c-32.667 -16.667 -71.334 -25 -116.001 -25s-83.334 8.33301 -116.001 25c-43.333 21.333 -65 51.333 -65 90v388c0 38.667 21.667 68.667 65 90c32.667 16 71.334 24 116.001 24c43.333 0 82 -8 116 -24
c42.667 -20.667 64 -50.667 64 -90v-388zM247.001 96v398c0 24 -13.667 36 -41 36s-41 -12 -41 -36v-398c0 -24.667 13.667 -37 41 -37s41 12.333 41 37z" />
    <glyph glyph-name="p" unicode="p" horiz-adv-x="395" 
d="M384 332c0 -16 -5.66797 -33.667 -17.001 -53c-32 -52.667 -89.333 -79 -172 -79h-14c-8 0 -13 0.333008 -15 1v-201h-140v487c0 38.667 21.667 68.667 65 90c32.667 16 71.334 24 116.001 24c42.667 0 80.667 -8 114 -24c42 -21.333 63 -51.333 63 -90v-155z
M251.999 456c0 48.667 -15 73 -45 73c-27.333 0 -41 -11.667 -41 -35v-222h2h2c54.667 0 82 17.333 82 52v132z" />
    <glyph glyph-name="q" unicode="q" horiz-adv-x="416" 
d="M392 -70l-11 0.000976562h-7c-4 0 -7 -0.333008 -9 -1h-27c-27.333 0 -48.333 2.66699 -63 8c-19.333 8 -30.333 25 -33 51c-2 -0.666992 -6.33301 -1 -13 -1h-12c-52.667 0 -95 5.66699 -127 17c-45.333 17.333 -68 49 -68 95v390c0 74 60.333 111 181 111
c120 0 180 -37 180 -111v-390c0 -50.667 -23 -84.334 -69 -101.001h78v-68zM244 96.001v400c0 24 -13.667 36 -41 36s-41 -12 -41 -36v-400c0 -24.667 13.667 -37 41 -37s41 12.333 41 37z" />
    <glyph glyph-name="r" unicode="r" horiz-adv-x="410" 
d="M384 0h-138.999v207c0 32.667 -23 49 -69 49h-10v-256h-140v487c0 39.333 21.333 69.333 64 90c34 16 72.667 24 116 24s81.666 -8 114.999 -24c42 -21.333 63 -51.333 63 -90v-105c0 -56 -35.333 -86.333 -106 -91c70.667 -6 106 -34 106 -84v-207zM252.001 382v74
c0 48.667 -15 73 -45 73c-27.333 0 -41 -11.667 -41 -35v-172h1c56.667 0 85 20 85 60z" />
    <glyph glyph-name="s" unicode="s" horiz-adv-x="412" 
d="M389 459v-71h-136v66c0 52 -16 78 -48 78c-28 0 -42 -14.333 -42 -43v-40c0 -30.667 19.667 -62.667 59 -96l106 -82c38 -33.333 57 -65 57 -95v-80c0 -74.667 -60 -112 -180 -112c-122 0 -183 48.333 -183 145v78h143v-114c0 -24 13.333 -36 40 -36
c30.667 0 46 16.667 46 50v46c0 22 -20.333 49.333 -61 82l-106 83c-38 34.667 -57 68.667 -57 102v70c0 74 59.333 111 178 111c60 0 104 -9 132 -27c34.667 -22 52 -60.333 52 -115z" />
    <glyph glyph-name="t" unicode="t" horiz-adv-x="408" 
d="M165 584v-130h184v-77h-184v-281c0 -24.667 13.333 -37 40 -37s40 12.333 40 37v131h140v-128c0 -76.667 -60 -115 -180 -115s-180 38.333 -180 115v485h140z" />
    <glyph glyph-name="u" unicode="u" horiz-adv-x="413" 
d="M387 99c0 -39.333 -21.3311 -69.333 -63.998 -90c-32.667 -16.667 -71.334 -25 -116.001 -25s-83.334 8.33301 -116.001 25c-43.333 21.333 -65 51.333 -65 90v485h140v-488c0 -24.667 13.667 -37 41 -37s41 12.333 41 37v488h139v-485z" />
    <glyph glyph-name="v" unicode="v" horiz-adv-x="455" 
d="M439 584l-114 -584h-200l-109 584h140l73 -476l75 476h135z" />
    <glyph glyph-name="w" unicode="w" horiz-adv-x="635" 
d="M608 100c0 -38.667 -20.333 -69 -61 -91c-34 -18 -71.667 -27 -113 -27c-47.333 0 -86.333 11 -117 33c-29.333 -22 -67.333 -33 -114 -33c-42 0 -80 9 -114 27c-42 22 -63 52.333 -63 91v484h140v-488c0 -24.667 13.667 -37 41 -37c9.33301 0 18.333 3 27 9
s13 13.667 13 23v493h140v-484c0 -27.333 13.333 -41 40 -41c28 0 42 12.333 42 37v488h139v-484z" />
    <glyph glyph-name="x" unicode="x" horiz-adv-x="415" 
d="M388 0h-140v228c0 24.667 -13.667 37 -41 37c-26.667 0 -40 -12.333 -40 -37v-228h-140v225c0 30.667 14.667 56.667 44 78c-29.333 20 -44 46 -44 78v203h140v-206c0 -24.667 13.333 -37 40 -37c27.333 0 41 12.333 41 37v206h140v-203c0 -31.333 -15 -57.333 -45 -78
c30 -21.333 45 -47.333 45 -78v-225z" />
    <glyph glyph-name="y" unicode="y" horiz-adv-x="447" 
d="M435 584l-143 -365v-219h-143v219l-137 365h137l78 -255l77 255h131z" />
    <glyph glyph-name="z" unicode="z" horiz-adv-x="360" 
d="M336 0h-313v68l164 441h-160v75h309v-69l-162 -440h162v-75z" />
    <glyph glyph-name="braceleft" unicode="{" horiz-adv-x="250" 
d="M230 -164l-25.001 -0.00195312c-44 0 -74.167 9.16699 -90.5 27.5s-24.5 49.833 -24.5 94.5v22v15c0 6.66699 0.333008 11.667 1 15c0.666992 11.333 1.16699 21.5 1.5 30.5s0.5 16.5 0.5 22.5c0 74.667 -26.333 112 -79 112h-10v71
c3.33301 -0.666992 6.5 -1.16699 9.5 -1.5s6.16699 -0.5 9.5 -0.5c46.667 0 70 36.333 70 109c0 5.33301 -0.166992 12.5 -0.5 21.5s-0.833008 19.167 -1.5 30.5c-0.666992 3.33301 -1 8.33301 -1 15v15v23c0 22.667 1.83301 42 5.5 58s9.83398 29.167 18.501 39.5
s20.5 17.833 35.5 22.5s33.5 7 55.5 7h10h6c4 0 7 -0.333008 9 -1v-71c-1.33301 0.666992 -4 1 -8 1h-6c-42 0 -63 -29 -63 -87c0 -5.33301 0.166992 -12 0.5 -20s0.833008 -17.667 1.5 -29c0.666992 -10.667 1.16699 -20.167 1.5 -28.5s0.5 -15.166 0.5 -20.499
c0 -66 -21.667 -105.667 -65 -119c43.333 -13.333 65 -52.333 65 -117c0 -5.33301 -0.166992 -12 -0.5 -20s-0.833008 -17.667 -1.5 -29c-0.666992 -10.667 -1.16699 -20.167 -1.5 -28.5s-0.5 -15.166 -0.5 -20.499c0 -59.333 22.667 -89 68 -89h9v-70z" />
    <glyph glyph-name="bar" unicode="|" horiz-adv-x="168" 
d="M139 -191h-112v810h112v-810z" />
    <glyph glyph-name="braceright" unicode="}" horiz-adv-x="268" 
d="M247 175c-1.33301 0.666992 -6.33203 1.00488 -14.999 1.00488c-49.333 0 -74 -36.333 -74 -109c0 -6 0.166992 -13.5 0.5 -22.5s0.833008 -19.5 1.5 -31.5c0.666992 -11.333 1.16699 -21.5 1.5 -30.5s0.5 -16.5 0.5 -22.5c0 -44.667 -8 -76 -24 -94
c-17.333 -20 -48 -30 -92 -30h-24v70c1.33301 -0.666992 5.66602 -1 12.999 -1c42 0 63 29 63 87c0 5.33301 -0.166992 12.166 -0.5 20.499s-0.833008 17.833 -1.5 28.5s-1.16699 20 -1.5 28s-0.5 14.667 -0.5 20c0 67.333 22 107.666 66 120.999c-44 12.667 -66 52 -66 118
c0 5.33301 0.166992 12.166 0.5 20.499s0.833008 18.166 1.5 29.499s1.16699 21.333 1.5 30s0.5 15.667 0.5 21c0 56.667 -21 85 -63 85c-7.33301 0 -11.666 -0.333008 -12.999 -1v71h23c22 0 40.5 -2.16699 55.5 -6.5s27 -11.333 36 -21s15.333 -22.5 19 -38.5
s5.5 -35.333 5.5 -58c0 -5.33301 -0.166992 -12.5 -0.5 -21.5s-0.833008 -19.167 -1.5 -30.5c-0.666992 -2.66699 -1 -5.33398 -1 -8.00098v-8v-14v-21c0 -74.667 25.333 -112 76 -112c7.33301 0 11.666 0.333008 12.999 1v-71z" />
    <glyph glyph-name="asciitilde" unicode="~" horiz-adv-x="132" 
d="M113 543l-19 -19h-28l-9 11l-8 -11h-22l19 19h23l11 -11l11 11h22z" />
    <glyph glyph-name="exclamdown" unicode="&#xa1;" horiz-adv-x="187" 
d="M159 -198h-132v456h132v-456zM159 291h-132v95h132v-95z" />
    <glyph glyph-name="cent" unicode="&#xa2;" horiz-adv-x="390" 
d="M225 594c101.333 -7.33301 152 -54.334 152 -141.001v-85h-140v123c0 24 -13.333 36 -40 36s-40 -12 -40 -36v-395c0 -24.667 13.333 -37 40 -37s40 12.333 40 37v131h140v-128c0 -70 -50.667 -108 -152 -114v-99h-54v99c-102.667 4.66699 -154 42.667 -154 114v385
c0 68.667 51.333 105.334 154 110.001v94h54v-94z" />
    <glyph glyph-name="sterling" unicode="&#xa3;" horiz-adv-x="435" 
d="M289 241h-99v-161h222v-80h-362v241h-30v57h30v186c0 74 60 111 180 111c60 0 104 -9 132 -27c34 -22 51 -60.333 51 -115v-85h-143v123c0 24 -13.333 36 -40 36s-40 -12 -40 -36v-193h99v-57z" />
    <glyph glyph-name="currency" unicode="&#xa4;" horiz-adv-x="446" 
d="M17 266h48v40h-48v61h48v122c0 74 60 111 180 111c80 0 134.667 -21 164 -63l-75 -141h-49v100c0 24 -13.333 36 -40 36s-40 -12 -40 -36v-129h114l-32 -61h-82v-40h61l-32 -61h-29v-109c0 -24.667 13.333 -37 40 -37s40 12.333 40 37v62h140v-59
c0 -76.667 -60 -115 -180 -115s-180 38.333 -180 115v106h-48v61z" />
    <glyph glyph-name="yen" unicode="&#xa5;" horiz-adv-x="431" 
d="M461 584l-143 -365v-219h-143v219l-137 365h137l78 -255l77 255h131zM403.763 191.622h-311.006v41.79h311.006v-41.79zM403.763 88.4141h-311.006v41.7891h311.006v-41.7891z" />
    <glyph glyph-name="dieresis" unicode="&#xa8;" horiz-adv-x="271" 
d="M247 673c0 -10.667 -4.33301 -19.334 -13 -26.001s-18.334 -10 -29.001 -10c-11.333 0 -21.333 3.33301 -30 10s-13 15.334 -13 26.001s4.33301 19.334 13 26.001s18.667 10 30 10c10.667 0 20.334 -3.33301 29.001 -10s13 -15.334 13 -26.001zM109 673
c0 -10.667 -4.16895 -19.334 -12.502 -26.001s-18.166 -10 -29.499 -10s-21.333 3.33301 -30 10s-13 15.334 -13 26.001s4.33301 19.334 13 26.001s18.667 10 30 10c10.667 0 20.334 -3.33301 29.001 -10s13 -15.334 13 -26.001z" />
    <glyph glyph-name="copyright" unicode="&#xa9;" horiz-adv-x="443" 
d="M382 467c0 14 -4.00098 26.666 -12.001 37.999c-11.333 15.333 -26.333 27.166 -45 35.499s-38.667 14 -60 17s-42.666 3.5 -63.999 1.5s-40.333 -5.33301 -57 -10c-10 -2.66699 -20 -6.33398 -30 -11.001s-18.833 -10.5 -26.5 -17.5s-14 -15 -19 -24
s-7.5 -19.5 -7.5 -31.5v-343c0 -7.33301 0.833008 -14.666 2.5 -21.999s4.83398 -14 9.50098 -20c10 -13.333 24.333 -24.333 43 -33s39 -15 61 -19s44.833 -5.16699 68.5 -3.5s45.167 6.33398 64.5 14.001s35.666 18.334 48.999 32.001s21 30.5 23 50.5v346z
M421.999 115.999c-2 -26 -10.665 -48.002 -25.998 -66.002s-34.5 -32.333 -57.5 -43s-48.5 -17.667 -76.5 -21s-55.5 -3.16602 -82.5 0.500977s-52.167 10.5 -75.5 20.5s-42 23.333 -56 40c-18 20.667 -27 45.334 -27 74.001v346c0 14.667 2.83301 28.167 8.5 40.5
s13.167 23.5 22.5 33.5s20.166 18.667 32.499 26s25.166 13.333 38.499 18c21.333 6.66699 44.333 11.167 69 13.5s49 2 73 -1s47.167 -9.16699 69.5 -18.5s41.833 -22.333 58.5 -39c19.333 -19.333 29 -43.333 29 -72v-346v-6zM319.001 386.997v-52h-74v74
c0 14 -7 21 -21 21s-21 -7 -21 -21v-232c0 -14.667 7 -22 21 -22s21 7.33301 21 22v76h74v-75c0 -44 -31.667 -66 -95 -66c-64 0 -96 22 -96 66v227c0 43.333 32 65 96 65c63.333 0 95 -27.667 95 -83z" />
    <glyph glyph-name="onequarter" unicode="&#xab;" horiz-adv-x="374" 
d="M95 302l102 -48v-60l-156 77v59l156 81v-62zM243 302l102 -48v-60l-156 77v59l156 81v-62z" />
    <glyph glyph-name="registered" unicode="&#xae;" horiz-adv-x="443" 
d="M382 466c0 14 -4.00098 26.666 -12.001 37.999c-11.333 15.333 -26.333 27.166 -45 35.499s-38.667 14 -60 17s-42.666 3.5 -63.999 1.5s-40.333 -5.33301 -57 -10c-10 -2.66699 -20 -6.33398 -30 -11.001s-18.833 -10.5 -26.5 -17.5s-14 -15 -19 -24
s-7.5 -19.5 -7.5 -31.5v-342c0 -7.33301 0.833008 -14.666 2.5 -21.999s4.83398 -14 9.50098 -20c10 -13.333 24.333 -24.333 43 -33s39 -15 61 -19s44.833 -5.16699 68.5 -3.5s45.167 6.33398 64.5 14.001s35.666 18.334 48.999 32.001s21 30.5 23 50.5v345z
M421.999 115.999c-2 -26 -10.665 -48.002 -25.998 -66.002s-34.5 -32.333 -57.5 -43s-48.5 -17.667 -76.5 -21s-55.5 -3.16602 -82.5 0.500977s-52.167 10.5 -75.5 20.5s-42 23.333 -56 40c-18 20.667 -27 45.334 -27 74.001v345c0 14.667 2.83301 28.167 8.5 40.5
s13.167 23.5 22.5 33.5s20.166 18.667 32.499 26s25.166 13.333 38.499 18c21.333 6.66699 44.333 11.167 69 13.5s49 2 73 -1s47.167 -9.16699 69.5 -18.5s41.833 -22.333 58.5 -39c19.333 -19.333 29 -43.333 29 -72v-345v-6zM332.001 121.997h-84v124
c0 19.333 -14 29 -42 29h-6v-153h-84v292c0 24 12.667 42 38 54c20.667 10 44 15 70 15c26.667 0 50 -5 70 -15c25.333 -12.667 38 -30.667 38 -54v-63c0 -34 -21.333 -52.333 -64 -55c42.667 -3.33301 64 -20 64 -50v-124zM252.001 350.997v44c0 29.333 -9 44 -27 44
c-16.667 0 -25 -7 -25 -21v-103h1c34 0 51 12 51 36z" />
    <glyph glyph-name="acute" unicode="&#xb4;" horiz-adv-x="189" 
d="M181 709l-88 -88h-76l46 88h118z" />
    <glyph glyph-name="cedilla" unicode="&#xb8;" horiz-adv-x="146" 
d="M130 -66c0 -22 -8.66504 -39.5 -25.998 -52.5s-37 -19.5 -59 -19.5c-10.667 0 -23 1 -37 3v17c4.66699 -0.666992 8.66699 -1.16699 12 -1.5s5.66602 -0.5 6.99902 -0.5c12 0 23 4.16699 33 12.5s15 18.833 15 31.5c0 19.333 -11.333 29 -34 29
c-4.66699 0 -7.33398 -0.333008 -8.00098 -1l44 71h23l-19 -32c32.667 -6.66699 49 -25.667 49 -57z" />
    <glyph glyph-name="onehalf" unicode="&#xbb;" horiz-adv-x="386" 
d="M302 304l-102 47v60l156 -77v-59l-156 -81v62zM154 304l-102 47v60l156 -77v-59l-156 -81v62z" />
    <glyph glyph-name="questiondown" unicode="&#xbf;" horiz-adv-x="339" 
d="M14 -47c0 32 4.33301 56.333 13 73c4.66699 14 18.667 34.667 42 62c30 36.667 45 76.667 45 120c0 4 -0.166992 9.16699 -0.5 15.5s-0.5 12.833 -0.5 19.5c0 7.33301 -0.166992 14.333 -0.5 21s-0.5 12 -0.5 16h125v-116c0 -30.667 -16.333 -65.334 -49 -104.001
c-32 -39.333 -48 -68 -48 -86v-80c0 -18 9.66699 -27 29 -27c18.667 0 28 9 28 27v143h127v-135c0 -31.333 -18.667 -55.666 -56 -72.999c-32 -13.333 -64.667 -20 -98 -20c-34 0 -67 6.66699 -99 20c-38 16.667 -57 41 -57 73v51zM112 407h125v-94h-125v94z" />
    <glyph glyph-name="Agrave" unicode="&#xc0;" horiz-adv-x="402" 
d="M381 1h-139v230h-82v-230h-140v485c0 39.333 21.333 69.333 64 90c34 16 73 24 117 24c43.333 0 82 -8 116 -24c42.667 -20.667 64 -50.667 64 -90v-485zM242 307v182c0 24.667 -13.667 37 -41 37s-41 -12.333 -41 -37v-182h82zM242 621h-75l-88 88h117z" />
    <glyph glyph-name="Aacute" unicode="&#xc1;" horiz-adv-x="403" 
d="M382 1h-139v230h-82v-230h-140v485c0 39.333 21.333 69.333 64 90c34 16 73 24 117 24c43.333 0 82 -8 116 -24c42.667 -20.667 64 -50.667 64 -90v-485zM243 307v182c0 24.667 -13.667 37 -41 37s-41 -12.333 -41 -37v-182h82zM297 709l-88 -88h-76l46 88h118z" />
    <glyph glyph-name="Acircumflex" unicode="&#xc2;" horiz-adv-x="405" 
d="M382 1h-139v230h-82v-230h-140v485c0 39.333 21.333 69.333 64 90c34 16 73 24 117 24c43.333 0 82 -8 116 -24c42.667 -20.667 64 -50.667 64 -90v-485zM243 307v182c0 24.667 -13.667 37 -41 37s-41 -12.333 -41 -37v-182h82zM331 622h-88l-44 52l-43 -52h-87l78 92
h105z" />
    <glyph glyph-name="Atilde" unicode="&#xc3;" horiz-adv-x="406" 
d="M383 1h-139v230h-82v-230h-140v485c0 39.333 21.333 69.333 64 90c34 16 73 24 117 24c43.333 0 82 -8 116 -24c42.667 -20.667 64 -50.667 64 -90v-485zM244 307v182c0 24.667 -13.667 37 -41 37s-41 -12.333 -41 -37v-182h82zM320 717
c0 -35.333 -12.333 -59.333 -37 -72c-12 -6 -24 -9 -36 -9c-18.667 0 -42 7 -70 21c-26.667 14.667 -45 22 -55 22c-13.333 0 -22.333 -5 -27 -15c-2 -3.33301 -5 -12.333 -9 -27h-13c2 53.333 26.333 80 73 80c19.333 0 42.333 -7.33301 69 -22
c26.667 -14 45.667 -21 57 -21c18 0 30 14.333 36 43h12z" />
    <glyph glyph-name="Adieresis" unicode="&#xc4;" horiz-adv-x="405" 
d="M383 1h-139v230h-82v-230h-140v485c0 39.333 21.333 69.333 64 90c34 16 73 24 117 24c43.333 0 82 -8 116 -24c42.667 -20.667 64 -50.667 64 -90v-485zM244 307v182c0 24.667 -13.667 37 -41 37s-41 -12.333 -41 -37v-182h82zM313 673
c0 -10.667 -4.33301 -19.334 -13 -26.001s-18.334 -10 -29.001 -10c-11.333 0 -21.333 3.33301 -30 10s-13 15.334 -13 26.001s4.33301 19.334 13 26.001s18.667 10 30 10c10.667 0 20.334 -3.33301 29.001 -10s13 -15.334 13 -26.001zM175 673
c0 -10.667 -4.16895 -19.334 -12.502 -26.001s-18.166 -10 -29.499 -10s-21.333 3.33301 -30 10s-13 15.334 -13 26.001s4.33301 19.334 13 26.001s18.667 10 30 10c10.667 0 20.334 -3.33301 29.001 -10s13 -15.334 13 -26.001z" />
    <glyph glyph-name="Aring" unicode="&#xc5;" horiz-adv-x="402" 
d="M381 1h-139v230h-82v-230h-140v485c0 39.333 21.333 69.333 64 90c34 16 73 24 117 24c43.333 0 82 -8 116 -24c42.667 -20.667 64 -50.667 64 -90v-485zM242 307v182c0 24.667 -13.667 37 -41 37s-41 -12.333 -41 -37v-182h82zM278 692c0 -20 -7.66699 -36.667 -23 -50
s-33 -20 -53 -20c-20.667 0 -38.5 6.66699 -53.5 20s-22.5 30 -22.5 50s7.5 36.667 22.5 50s32.833 20 53.5 20c20 0 37.667 -6.66699 53 -20s23 -30 23 -50zM250 692c0 12.667 -4.83301 23.167 -14.5 31.5s-20.834 12.5 -33.501 12.5
c-13.333 0 -24.833 -4.16699 -34.5 -12.5s-14.5 -18.833 -14.5 -31.5s4.83301 -23.334 14.5 -32.001s21.167 -13 34.5 -13c12.667 0 23.834 4.33301 33.501 13s14.5 19.334 14.5 32.001z" />
    <glyph glyph-name="AE" unicode="&#xc6;" horiz-adv-x="579" 
d="M556 0h-308v1h-1v260h-81v-260h-140v485c0 39.333 21.333 69.333 64 90c34 16 72.667 24 116 24c34 0 67 -5.66699 99 -17h251v-79h-169v-167h165v-77h-165v-180h169v-80zM247 337v152c0 24.667 -13.667 37 -41 37c-26.667 0 -40 -12.333 -40 -37v-152h81z" />
    <glyph glyph-name="Ccedilla" unicode="&#xc7;" horiz-adv-x="396" 
d="M264 -66c0 -22 -8.66602 -39.498 -25.999 -52.498s-37 -19.5 -59 -19.5c-10.667 0 -23 1 -37 3v17c24.667 -1.33301 42 2.16699 52 10.5s15 18.833 15 31.5c0 19.333 -14 28.666 -42 27.999l20 32c-41.333 2 -76 10.333 -104 25c-42.667 20.667 -64 50.667 -64 90v385
c0 74 60.333 111 181 111c119.333 0 179 -47.333 179 -142v-85h-140v123c0 24 -13.333 36 -40 36s-40 -12 -40 -36v-395c0 -24.667 13.333 -37 40 -37s40 12.333 40 37v131h140v-128c0 -39.333 -21.333 -69.333 -64 -90c-13.333 -6.66699 -26.833 -11.834 -40.5 -15.501
s-27.834 -6.16699 -42.501 -7.5c21.333 -10 32 -27.333 32 -52z" />
    <glyph glyph-name="Egrave" unicode="&#xc8;" horiz-adv-x="339" 
d="M330 0h-308v583h308v-79h-169v-147h165v-77h-165v-200h169v-80zM221 621h-75l-88 88h117z" />
    <glyph glyph-name="Eacute" unicode="&#xc9;" horiz-adv-x="341" 
d="M328 0h-308v583h308v-79h-169v-147h165v-77h-165v-200h169v-80zM303 709l-88 -88h-76l46 88h118z" />
    <glyph glyph-name="Ecircumflex" unicode="&#xca;" horiz-adv-x="345" 
d="M331 0h-308v583h308v-79h-169v-147h165v-77h-165v-200h169v-80zM310 622h-88l-44 52l-43 -52h-87l78 92h105z" />
    <glyph glyph-name="Edieresis" unicode="&#xcb;" horiz-adv-x="342" 
d="M330 0h-308v583h308v-79h-169v-147h165v-77h-165v-200h169v-80zM294 673c0 -10.667 -4.33301 -19.334 -13 -26.001s-18.334 -10 -29.001 -10c-11.333 0 -21.333 3.33301 -30 10s-13 15.334 -13 26.001s4.33301 19.334 13 26.001s18.667 10 30 10
c10.667 0 20.334 -3.33301 29.001 -10s13 -15.334 13 -26.001zM156 673c0 -10.667 -4.16895 -19.334 -12.502 -26.001s-18.166 -10 -29.499 -10s-21.333 3.33301 -30 10s-13 15.334 -13 26.001s4.33301 19.334 13 26.001s18.667 10 30 10
c10.667 0 20.334 -3.33301 29.001 -10s13 -15.334 13 -26.001z" />
    <glyph glyph-name="Igrave" unicode="&#xcc;" horiz-adv-x="215" 
d="M191 0h-139v583h139v-583zM171 621h-75l-88 88h118z" />
    <glyph glyph-name="Iacute" unicode="&#xcd;" horiz-adv-x="208" 
d="M162 0h-139v583h139v-583zM198 709l-88 -88h-75l45 88h118z" />
    <glyph glyph-name="Icircumflex" unicode="&#xce;" horiz-adv-x="282" 
d="M211 0h-139v583h139v-583zM272 622h-88l-45 52l-42 -52h-88l79 92h105z" />
    <glyph glyph-name="Idieresis" unicode="&#xcf;" horiz-adv-x="246" 
d="M197 0h-139v583h139v-583zM232 673c0 -10.667 -4.33301 -19.334 -13 -26.001s-18.334 -10 -29.001 -10c-11.333 0 -21.333 3.33301 -30 10s-13 15.334 -13 26.001s4.33301 19.334 13 26.001s18.667 10 30 10c10.667 0 20.334 -3.33301 29.001 -10s13 -15.334 13 -26.001z
M95 673c0 -10.667 -4.33105 -19.334 -12.998 -26.001s-18.667 -10 -30 -10c-10.667 0 -20.334 3.33301 -29.001 10s-13 15.334 -13 26.001s4.16699 19.334 12.5 26.001s18.166 10 29.499 10c10.667 0 20.5 -3.33301 29.5 -10s13.5 -15.334 13.5 -26.001z" />
    <glyph glyph-name="Eth" unicode="&#xd0;" horiz-adv-x="440" 
d="M414 107c0 -71.333 -75.333 -107 -226 -107h-135v260h-33v61h33v263h136c150 0 225 -36 225 -108v-369zM231 260h-39v-189h19c42 0 63 12.667 63 38v369c0 25.333 -21 38 -63 38h-19v-195h39v-61z" />
    <glyph glyph-name="Ntilde" unicode="&#xd1;" horiz-adv-x="406" 
d="M383 1h-139v488c0 24.667 -13.667 37 -41 37s-41 -12.333 -41 -37v-488h-140v485c0 39.333 21.333 69.333 64 90c34 16 73 24 117 24c43.333 0 82 -8 116 -24c42.667 -20.667 64 -50.667 64 -90v-485zM330 717c0 -35.333 -12.333 -59.333 -37 -72c-12 -6 -24 -9 -36 -9
c-18.667 0 -42 7 -70 21c-26.667 14.667 -45 22 -55 22c-13.333 0 -22.333 -5 -27 -15c-2 -3.33301 -5 -12.333 -9 -27h-13c2 53.333 26.333 80 73 80c19.333 0 42.333 -7.33301 69 -22c26.667 -14 45.667 -21 57 -21c18 0 30 14.333 36 43h12z" />
    <glyph glyph-name="Ograve" unicode="&#xd2;" horiz-adv-x="401" 
d="M380 99c0 -39.333 -21.332 -69.333 -63.999 -90c-32.667 -16.667 -71.334 -25 -116.001 -25s-83.334 8.33301 -116.001 25c-43.333 21.333 -65 51.333 -65 90v385c0 38.667 21.667 68.667 65 90c32.667 16 71.334 24 116.001 24c43.333 0 82 -8 116 -24
c42.667 -20.667 64 -50.667 64 -90v-385zM241.001 96v395c0 24 -13.667 36 -41 36s-41 -12 -41 -36v-395c0 -24.667 13.667 -37 41 -37s41 12.333 41 37zM282.001 621h-75l-88 88h117z" />
    <glyph glyph-name="Oacute" unicode="&#xd3;" horiz-adv-x="401" 
d="M381 99c0 -39.333 -21.332 -69.333 -63.999 -90c-32.667 -16.667 -71.334 -25 -116.001 -25s-83.334 8.33301 -116.001 25c-43.333 21.333 -65 51.333 -65 90v385c0 38.667 21.667 68.667 65 90c32.667 16 71.334 24 116.001 24c43.333 0 82 -8 116 -24
c42.667 -20.667 64 -50.667 64 -90v-385zM242.001 96v395c0 24 -13.667 36 -41 36s-41 -12 -41 -36v-395c0 -24.667 13.667 -37 41 -37s41 12.333 41 37zM287.001 709l-88 -88h-76l46 88h118z" />
    <glyph glyph-name="Ocircumflex" unicode="&#xd4;" 
d="M382 99c0 -39.333 -21.332 -69.333 -63.999 -90c-32.667 -16.667 -71.334 -25 -116.001 -25s-83.334 8.33301 -116.001 25c-43.333 21.333 -65 51.333 -65 90v385c0 38.667 21.667 68.667 65 90c32.667 16 71.334 24 116.001 24c43.333 0 82 -8 116 -24
c42.667 -20.667 64 -50.667 64 -90v-385zM243.001 96v395c0 24 -13.667 36 -41 36s-41 -12 -41 -36v-395c0 -24.667 13.667 -37 41 -37s41 12.333 41 37zM342.001 622h-88l-44 52l-43 -52h-87l78 92h105z" />
    <glyph glyph-name="Otilde" unicode="&#xd5;" 
d="M382 99c0 -39.333 -21.332 -69.333 -63.999 -90c-32.667 -16.667 -71.334 -25 -116.001 -25s-83.334 8.33301 -116.001 25c-43.333 21.333 -65 51.333 -65 90v385c0 38.667 21.667 68.667 65 90c32.667 16 71.334 24 116.001 24c43.333 0 82 -8 116 -24
c42.667 -20.667 64 -50.667 64 -90v-385zM243.001 96v395c0 24 -13.667 36 -41 36s-41 -12 -41 -36v-395c0 -24.667 13.667 -37 41 -37s41 12.333 41 37zM330.001 717c0 -35.333 -12.333 -59.333 -37 -72c-12 -6 -24 -9 -36 -9c-18.667 0 -42 7 -70 21
c-26.667 14.667 -45 22 -55 22c-13.333 0 -22.333 -5 -27 -15c-2 -3.33301 -5 -12.333 -9 -27h-13c2 53.333 26.333 80 73 80c19.333 0 42.333 -7.33301 69 -22c26.667 -14 45.667 -21 57 -21c18 0 30 14.333 36 43h12z" />
    <glyph glyph-name="Odieresis" unicode="&#xd6;" horiz-adv-x="403" 
d="M382 99c0 -39.333 -21.332 -69.333 -63.999 -90c-32.667 -16.667 -71.334 -25 -116.001 -25s-83.334 8.33301 -116.001 25c-43.333 21.333 -65 51.333 -65 90v385c0 38.667 21.667 68.667 65 90c32.667 16 71.334 24 116.001 24c43.333 0 82 -8 116 -24
c42.667 -20.667 64 -50.667 64 -90v-385zM243.001 96v395c0 24 -13.667 36 -41 36s-41 -12 -41 -36v-395c0 -24.667 13.667 -37 41 -37s41 12.333 41 37zM317.001 673c0 -10.667 -4.33301 -19.334 -13 -26.001s-18.334 -10 -29.001 -10c-11.333 0 -21.333 3.33301 -30 10
s-13 15.334 -13 26.001s4.33301 19.334 13 26.001s18.667 10 30 10c10.667 0 20.334 -3.33301 29.001 -10s13 -15.334 13 -26.001zM179.001 673c0 -10.667 -4.16895 -19.334 -12.502 -26.001s-18.166 -10 -29.499 -10s-21.333 3.33301 -30 10s-13 15.334 -13 26.001
s4.33301 19.334 13 26.001s18.667 10 30 10c10.667 0 20.334 -3.33301 29.001 -10s13 -15.334 13 -26.001z" />
    <glyph glyph-name="Oslash" unicode="&#xd8;" horiz-adv-x="412" 
d="M386 99c0 -39.333 -21.332 -69.333 -63.999 -90c-32.667 -16.667 -71.334 -25 -116.001 -25s-83.334 8.33301 -116.001 25c-43.333 21.333 -65 51.333 -65 90v385c0 38.667 21.667 68.667 65 90c32.667 16 71.334 24 116.001 24c43.333 0 82 -8 116 -24
c42.667 -20.667 64 -50.667 64 -90v-385zM247.001 96v233l-82 -184v-49c0 -24.667 13.667 -37 41 -37s41 12.333 41 37zM247.001 491c0 24 -13.667 36 -41 36s-41 -12 -41 -36v-219l82 184v35z" />
    <glyph glyph-name="Ugrave" unicode="&#xd9;" horiz-adv-x="402" 
d="M381 99c0 -39.333 -21.3311 -69.333 -63.998 -90c-32.667 -16.667 -71.334 -25 -116.001 -25s-83.334 8.33301 -116.001 25c-43.333 21.333 -65 51.333 -65 90v484h140v-487c0 -24.667 13.667 -37 41 -37s41 12.333 41 37v487h139v-484zM283.002 621h-75l-88 88h117z" />
    <glyph glyph-name="Uacute" unicode="&#xda;" horiz-adv-x="401" 
d="M381 99c0 -39.333 -21.3311 -69.333 -63.998 -90c-32.667 -16.667 -71.334 -25 -116.001 -25s-83.334 8.33301 -116.001 25c-43.333 21.333 -65 51.333 -65 90v484h140v-487c0 -24.667 13.667 -37 41 -37s41 12.333 41 37v487h139v-484zM287.002 709l-88 -88h-76l46 88
h118z" />
    <glyph glyph-name="Ucircumflex" unicode="&#xdb;" 
d="M382 99c0 -39.333 -21.3311 -69.333 -63.998 -90c-32.667 -16.667 -71.334 -25 -116.001 -25s-83.334 8.33301 -116.001 25c-43.333 21.333 -65 51.333 -65 90v484h140v-487c0 -24.667 13.667 -37 41 -37s41 12.333 41 37v487h139v-484zM342.002 622h-88l-44 52l-43 -52
h-87l78 92h105z" />
    <glyph glyph-name="Udieresis" unicode="&#xdc;" 
d="M382 99c0 -39.333 -21.3311 -69.333 -63.998 -90c-32.667 -16.667 -71.334 -25 -116.001 -25s-83.334 8.33301 -116.001 25c-43.333 21.333 -65 51.333 -65 90v484h140v-487c0 -24.667 13.667 -37 41 -37s41 12.333 41 37v487h139v-484zM317.002 673
c0 -10.667 -4.33301 -19.334 -13 -26.001s-18.334 -10 -29.001 -10c-11.333 0 -21.333 3.33301 -30 10s-13 15.334 -13 26.001s4.33301 19.334 13 26.001s18.667 10 30 10c10.667 0 20.334 -3.33301 29.001 -10s13 -15.334 13 -26.001zM179.002 673
c0 -10.667 -4.16895 -19.334 -12.502 -26.001s-18.166 -10 -29.499 -10s-21.333 3.33301 -30 10s-13 15.334 -13 26.001s4.33301 19.334 13 26.001s18.667 10 30 10c10.667 0 20.334 -3.33301 29.001 -10s13 -15.334 13 -26.001z" />
    <glyph glyph-name="Yacute" unicode="&#xdd;" horiz-adv-x="438" 
d="M430 583l-143 -364v-219h-143v219l-137 364h137l78 -254l77 254h131zM327 709l-88 -88h-76l46 88h118z" />
    <glyph glyph-name="Thorn" unicode="&#xde;" horiz-adv-x="395" 
d="M166 0h-139v583h139v-118c28.667 13.333 55.667 20 81 20c92 0 138 -38 138 -114v-152c0 -16 -5.66699 -33.667 -17 -53c-32 -52.667 -89.333 -79 -172 -79h-14c-8 0 -13 0.333008 -15 1v-87h-1v-1zM253 340c0 48.667 -15 73 -45 73c-27.333 0 -41 -11.667 -41 -35v-219
h4c54.667 0 82 17.333 82 52v129z" />
    <glyph glyph-name="germandbls" unicode="&#xdf;" horiz-adv-x="824" 
d="M389 459v-71h-136v66c0 52 -16 78 -48 78c-28 0 -42 -14.333 -42 -43v-34c0 -34.667 19.667 -68.667 59 -102l106 -82c38 -33.333 57 -65 57 -95v-80c0 -74.667 -60 -112 -180 -112c-122 0 -183 48.333 -183 145v78h143v-114c0 -24 13.333 -36 40 -36
c30.667 0 46 16.667 46 50v46c0 22 -20.333 49.333 -61 82l-106 83c-38 34.667 -57 68.667 -57 102v70c0 74 59.333 111 178 111c60 0 104 -9 132 -27c34.667 -22 52 -60.333 52 -115zM801 459v-71h-136v66c0 52 -16 78 -48 78c-28 0 -42 -14.333 -42 -43v-34
c0 -34.667 19.667 -68.667 59 -102l106 -82c38 -33.333 57 -65 57 -95v-80c0 -74.667 -60 -112 -180 -112c-122 0 -183 48.333 -183 145v78h143v-114c0 -24 13.333 -36 40 -36c30.667 0 46 16.667 46 50v46c0 22 -20.333 49.333 -61 82l-106 83
c-38 34.667 -57 68.667 -57 102v70c0 74 59.333 111 178 111c60 0 104 -9 132 -27c34.667 -22 52 -60.333 52 -115z" />
    <glyph glyph-name="agrave" unicode="&#xe0;" horiz-adv-x="402" 
d="M382 1h-139v230h-82v-230h-140v485c0 39.333 21.333 69.333 64 90c34 16 73 24 117 24c43.333 0 82 -8 116 -24c42.667 -20.667 64 -50.667 64 -90v-485zM243 307v182c0 24.667 -13.667 37 -41 37s-41 -12.333 -41 -37v-182h82zM243 621h-75l-88 88h117z" />
    <glyph glyph-name="aacute" unicode="&#xe1;" horiz-adv-x="403" 
d="M381 1h-139v280h-82v-280h-140v485c0 39.333 21.333 69.333 64 90c34 16 73 24 117 24c43.333 0 82 -8 116 -24c42.667 -20.667 64 -50.667 64 -90v-485zM242 357v132c0 24.667 -13.667 37 -41 37s-41 -12.333 -41 -37v-132h82zM316 709l-88 -88h-76l46 88h118z" />
    <glyph glyph-name="acircumflex" unicode="&#xe2;" horiz-adv-x="405" 
d="M382 1h-139v230h-82v-230h-140v485c0 39.333 21.333 69.333 64 90c34 16 73 24 117 24c43.333 0 82 -8 116 -24c42.667 -20.667 64 -50.667 64 -90v-485zM243 307v182c0 24.667 -13.667 37 -41 37s-41 -12.333 -41 -37v-182h82zM331 622h-88l-44 52l-43 -52h-87l78 92
h105z" />
    <glyph glyph-name="atilde" unicode="&#xe3;" horiz-adv-x="406" 
d="M383 1h-139v230h-82v-230h-140v485c0 39.333 21.333 69.333 64 90c34 16 73 24 117 24c43.333 0 82 -8 116 -24c42.667 -20.667 64 -50.667 64 -90v-485zM244 307v182c0 24.667 -13.667 37 -41 37s-41 -12.333 -41 -37v-182h82zM330 717
c0 -35.333 -12.333 -59.333 -37 -72c-12 -6 -24 -9 -36 -9c-18.667 0 -42 7 -70 21c-26.667 14.667 -45 22 -55 22c-13.333 0 -22.333 -5 -27 -15c-2 -3.33301 -5 -12.333 -9 -27h-13c2 53.333 26.333 80 73 80c19.333 0 42.333 -7.33301 69 -22
c26.667 -14 45.667 -21 57 -21c18 0 30 14.333 36 43h12z" />
    <glyph glyph-name="adieresis" unicode="&#xe4;" horiz-adv-x="405" 
d="M383 1h-139v230h-82v-230h-140v485c0 39.333 21.333 69.333 64 90c34 16 73 24 117 24c43.333 0 82 -8 116 -24c42.667 -20.667 64 -50.667 64 -90v-485zM244 307v182c0 24.667 -13.667 37 -41 37s-41 -12.333 -41 -37v-182h82zM313 673
c0 -10.667 -4.33301 -19.334 -13 -26.001s-18.334 -10 -29.001 -10c-11.333 0 -21.333 3.33301 -30 10s-13 15.334 -13 26.001s4.33301 19.334 13 26.001s18.667 10 30 10c10.667 0 20.334 -3.33301 29.001 -10s13 -15.334 13 -26.001zM175 673
c0 -10.667 -4.16895 -19.334 -12.502 -26.001s-18.166 -10 -29.499 -10s-21.333 3.33301 -30 10s-13 15.334 -13 26.001s4.33301 19.334 13 26.001s18.667 10 30 10c10.667 0 20.334 -3.33301 29.001 -10s13 -15.334 13 -26.001z" />
    <glyph glyph-name="aring" unicode="&#xe5;" horiz-adv-x="402" 
d="M381 1h-139v230h-82v-230h-140v485c0 39.333 21.333 69.333 64 90c34 16 73 24 117 24c43.333 0 82 -8 116 -24c42.667 -20.667 64 -50.667 64 -90v-485zM242 307v182c0 24.667 -13.667 37 -41 37s-41 -12.333 -41 -37v-182h82zM278 692c0 -20 -7.66699 -36.667 -23 -50
s-33 -20 -53 -20c-20.667 0 -38.5 6.66699 -53.5 20s-22.5 30 -22.5 50s7.5 36.667 22.5 50s32.833 20 53.5 20c20 0 37.667 -6.66699 53 -20s23 -30 23 -50zM250 692c0 12.667 -4.83301 23.167 -14.5 31.5s-20.834 12.5 -33.501 12.5
c-13.333 0 -24.833 -4.16699 -34.5 -12.5s-14.5 -18.833 -14.5 -31.5s4.83301 -23.334 14.5 -32.001s21.167 -13 34.5 -13c12.667 0 23.834 4.33301 33.501 13s14.5 19.334 14.5 32.001z" />
    <glyph glyph-name="ae" unicode="&#xe6;" horiz-adv-x="579" 
d="M556 0h-308v1h-1v260h-81v-260h-140v485c0 39.333 21.333 69.333 64 90c34 16 72.667 24 116 24c40 0 73 -5.33301 99 -16h251v-79h-169v-168h165v-77h-165v-180h169v-80zM247 337v152c0 24.667 -13.667 37 -41 37c-26.667 0 -40 -12.333 -40 -37v-152h81z" />
    <glyph glyph-name="ccedilla" unicode="&#xe7;" horiz-adv-x="399" 
d="M264 -66c0 -22 -8.66406 -39.502 -25.9971 -52.502s-37 -19.5 -59 -19.5c-10.667 0 -23 1 -37 3v17c4.66699 -0.666992 8.66699 -1.16699 12 -1.5s5.66602 -0.5 6.99902 -0.5c12 0 23 4.16699 33 12.5s15 18.833 15 31.5c0 19.333 -11.333 29 -34 29
c-4.66699 0 -7.33398 -0.333008 -8.00098 -1l20 32c-41.333 2 -76 10.333 -104 25c-42.667 20.667 -64 50.667 -64 90v385c0 74 60.333 111 181 111c60 0 103.667 -9 131 -27c34 -22 51 -60.333 51 -115c0 -5.33301 -0.166992 -11.666 -0.5 -18.999
s-0.833008 -15.666 -1.5 -24.999c-0.666992 -3.33301 -1 -7.66602 -1 -12.999v-11v-17h-140v123c0 24 -13.333 36 -40 36s-40 -12 -40 -36v-395c0 -24.667 13.333 -37 40 -37s40 12.333 40 37v131h140v-128c0 -39.333 -21.333 -69.333 -64 -90
c-13.333 -6.66699 -26.833 -11.834 -40.5 -15.501s-27.834 -6.16699 -42.501 -7.5c21.333 -10 32 -27.333 32 -52z" />
    <glyph glyph-name="egrave" unicode="&#xe8;" horiz-adv-x="339" 
d="M328 0h-308v583h308v-79h-169v-147h165v-77h-165v-200h169v-80zM259 621h-75l-88 88h117z" />
    <glyph glyph-name="eacute" unicode="&#xe9;" horiz-adv-x="340" 
d="M330 0h-308v583h308v-79h-169v-147h165v-77h-165v-200h169v-80zM255 709l-88 -88h-76l46 88h118z" />
    <glyph glyph-name="ecircumflex" unicode="&#xea;" horiz-adv-x="345" 
d="M331 0h-308v583h308v-79h-169v-147h165v-77h-165v-200h169v-80zM310 622h-88l-44 52l-43 -52h-87l78 92h105z" />
    <glyph glyph-name="edieresis" unicode="&#xeb;" horiz-adv-x="342" 
d="M330 0h-308v583h308v-79h-169v-147h165v-77h-165v-200h169v-80zM294 673c0 -10.667 -4.33301 -19.334 -13 -26.001s-18.334 -10 -29.001 -10c-11.333 0 -21.333 3.33301 -30 10s-13 15.334 -13 26.001s4.33301 19.334 13 26.001s18.667 10 30 10
c10.667 0 20.334 -3.33301 29.001 -10s13 -15.334 13 -26.001zM156 673c0 -10.667 -4.16895 -19.334 -12.502 -26.001s-18.166 -10 -29.499 -10s-21.333 3.33301 -30 10s-13 15.334 -13 26.001s4.33301 19.334 13 26.001s18.667 10 30 10
c10.667 0 20.334 -3.33301 29.001 -10s13 -15.334 13 -26.001z" />
    <glyph glyph-name="igrave" unicode="&#xec;" horiz-adv-x="215" 
d="M191 0h-139v583h139v-583zM171 621h-75l-88 88h118z" />
    <glyph glyph-name="iacute" unicode="&#xed;" horiz-adv-x="208" 
d="M162 0h-139v583h139v-583zM198 709l-88 -88h-75l45 88h118z" />
    <glyph glyph-name="icircumflex" unicode="&#xee;" horiz-adv-x="282" 
d="M211 0h-139v583h139v-583zM272 622h-88l-45 52l-42 -52h-88l79 92h105z" />
    <glyph glyph-name="idieresis" unicode="&#xef;" horiz-adv-x="246" 
d="M197 0h-139v583h139v-583zM232 673c0 -10.667 -4.33301 -19.334 -13 -26.001s-18.334 -10 -29.001 -10c-11.333 0 -21.333 3.33301 -30 10s-13 15.334 -13 26.001s4.33301 19.334 13 26.001s18.667 10 30 10c10.667 0 20.334 -3.33301 29.001 -10s13 -15.334 13 -26.001z
M95 673c0 -10.667 -4.33105 -19.334 -12.998 -26.001s-18.667 -10 -30 -10c-10.667 0 -20.334 3.33301 -29.001 10s-13 15.334 -13 26.001s4.16699 19.334 12.5 26.001s18.166 10 29.499 10c10.667 0 20.5 -3.33301 29.5 -10s13.5 -15.334 13.5 -26.001z" />
    <glyph glyph-name="eth" unicode="&#xf0;" horiz-adv-x="424" 
d="M414 107c0 -71.333 -75.333 -107 -226 -107h-135v260h-33v61h33v263h136c150 0 225 -36 225 -108v-369zM231 260h-39v-189h19c42 0 63 12.667 63 38v369c0 25.333 -21 38 -63 38h-19v-195h39v-61z" />
    <glyph glyph-name="ntilde" unicode="&#xf1;" horiz-adv-x="406" 
d="M383 1h-139v488c0 24.667 -13.667 37 -41 37s-41 -12.333 -41 -37v-488h-140v485c0 39.333 21.333 69.333 64 90c34 16 73 24 117 24c43.333 0 82 -8 116 -24c42.667 -20.667 64 -50.667 64 -90v-485zM330 717c0 -35.333 -12.333 -59.333 -37 -72c-12 -6 -24 -9 -36 -9
c-18.667 0 -42 7 -70 21c-26.667 14.667 -45 22 -55 22c-13.333 0 -22.333 -5 -27 -15c-2 -3.33301 -5 -12.333 -9 -27h-13c2 53.333 26.333 80 73 80c19.333 0 42.333 -7.33301 69 -22c26.667 -14 45.667 -21 57 -21c18 0 30 14.333 36 43h12z" />
    <glyph glyph-name="ograve" unicode="&#xf2;" horiz-adv-x="401" 
d="M380 99c0 -39.333 -21.332 -69.333 -63.999 -90c-32.667 -16.667 -71.334 -25 -116.001 -25s-83.334 8.33301 -116.001 25c-43.333 21.333 -65 51.333 -65 90v385c0 38.667 21.667 68.667 65 90c32.667 16 71.334 24 116.001 24c43.333 0 82 -8 116 -24
c42.667 -20.667 64 -50.667 64 -90v-385zM241.001 96v395c0 24 -13.667 36 -41 36s-41 -12 -41 -36v-395c0 -24.667 13.667 -37 41 -37s41 12.333 41 37zM282.001 621h-75l-88 88h117z" />
    <glyph glyph-name="oacute" unicode="&#xf3;" horiz-adv-x="401" 
d="M381 99c0 -39.333 -21.332 -69.333 -63.999 -90c-32.667 -16.667 -71.334 -25 -116.001 -25s-83.334 8.33301 -116.001 25c-43.333 21.333 -65 51.333 -65 90v385c0 38.667 21.667 68.667 65 90c32.667 16 71.334 24 116.001 24c43.333 0 82 -8 116 -24
c42.667 -20.667 64 -50.667 64 -90v-385zM242.001 96v395c0 24 -13.667 36 -41 36s-41 -12 -41 -36v-395c0 -24.667 13.667 -37 41 -37s41 12.333 41 37zM287.001 709l-88 -88h-76l46 88h118z" />
    <glyph glyph-name="ocircumflex" unicode="&#xf4;" 
d="M382 99c0 -39.333 -21.332 -69.333 -63.999 -90c-32.667 -16.667 -71.334 -25 -116.001 -25s-83.334 8.33301 -116.001 25c-43.333 21.333 -65 51.333 -65 90v385c0 38.667 21.667 68.667 65 90c32.667 16 71.334 24 116.001 24c43.333 0 82 -8 116 -24
c42.667 -20.667 64 -50.667 64 -90v-385zM243.001 96v395c0 24 -13.667 36 -41 36s-41 -12 -41 -36v-395c0 -24.667 13.667 -37 41 -37s41 12.333 41 37zM342.001 622h-88l-44 52l-43 -52h-87l78 92h105z" />
    <glyph glyph-name="otilde" unicode="&#xf5;" 
d="M382 99c0 -39.333 -21.332 -69.333 -63.999 -90c-32.667 -16.667 -71.334 -25 -116.001 -25s-83.334 8.33301 -116.001 25c-43.333 21.333 -65 51.333 -65 90v385c0 38.667 21.667 68.667 65 90c32.667 16 71.334 24 116.001 24c43.333 0 82 -8 116 -24
c42.667 -20.667 64 -50.667 64 -90v-385zM243.001 96v395c0 24 -13.667 36 -41 36s-41 -12 -41 -36v-395c0 -24.667 13.667 -37 41 -37s41 12.333 41 37zM330.001 717c0 -35.333 -12.333 -59.333 -37 -72c-12 -6 -24 -9 -36 -9c-18.667 0 -42 7 -70 21
c-26.667 14.667 -45 22 -55 22c-13.333 0 -22.333 -5 -27 -15c-2 -3.33301 -5 -12.333 -9 -27h-13c2 53.333 26.333 80 73 80c19.333 0 42.333 -7.33301 69 -22c26.667 -14 45.667 -21 57 -21c18 0 30 14.333 36 43h12z" />
    <glyph glyph-name="odieresis" unicode="&#xf6;" horiz-adv-x="403" 
d="M382 99c0 -39.333 -21.332 -69.333 -63.999 -90c-32.667 -16.667 -71.334 -25 -116.001 -25s-83.334 8.33301 -116.001 25c-43.333 21.333 -65 51.333 -65 90v385c0 38.667 21.667 68.667 65 90c32.667 16 71.334 24 116.001 24c43.333 0 82 -8 116 -24
c42.667 -20.667 64 -50.667 64 -90v-385zM243.001 96v395c0 24 -13.667 36 -41 36s-41 -12 -41 -36v-395c0 -24.667 13.667 -37 41 -37s41 12.333 41 37zM317.001 673c0 -10.667 -4.33301 -19.334 -13 -26.001s-18.334 -10 -29.001 -10c-11.333 0 -21.333 3.33301 -30 10
s-13 15.334 -13 26.001s4.33301 19.334 13 26.001s18.667 10 30 10c10.667 0 20.334 -3.33301 29.001 -10s13 -15.334 13 -26.001zM179.001 673c0 -10.667 -4.16895 -19.334 -12.502 -26.001s-18.166 -10 -29.499 -10s-21.333 3.33301 -30 10s-13 15.334 -13 26.001
s4.33301 19.334 13 26.001s18.667 10 30 10c10.667 0 20.334 -3.33301 29.001 -10s13 -15.334 13 -26.001z" />
    <glyph glyph-name="oslash" unicode="&#xf8;" horiz-adv-x="412" 
d="M386 99c0 -39.333 -21.332 -69.333 -63.999 -90c-32.667 -16.667 -71.334 -25 -116.001 -25s-83.334 8.33301 -116.001 25c-43.333 21.333 -65 51.333 -65 90v385c0 38.667 21.667 68.667 65 90c32.667 16 71.334 24 116.001 24c43.333 0 82 -8 116 -24
c42.667 -20.667 64 -50.667 64 -90v-385zM247.001 96v233l-82 -184v-49c0 -24.667 13.667 -37 41 -37s41 12.333 41 37zM247.001 491c0 24 -13.667 36 -41 36s-41 -12 -41 -36v-219l82 184v35z" />
    <glyph glyph-name="ugrave" unicode="&#xf9;" horiz-adv-x="402" 
d="M381 99c0 -39.333 -21.332 -69.333 -63.999 -90c-32.667 -16.667 -71.334 -25 -116.001 -25c-45.333 0 -84.333 8.33301 -117 25c-42.667 20.667 -64 50.667 -64 90v484h140v-487c0 -24.667 13.667 -37 41 -37s41 12.333 41 37v487h139v-484zM283.001 621h-75l-88 88h117
z" />
    <glyph glyph-name="uacute" unicode="&#xfa;" horiz-adv-x="401" 
d="M381 99c0 -39.333 -21.332 -69.333 -63.999 -90c-32.667 -16.667 -71.334 -25 -116.001 -25c-45.333 0 -84.333 8.33301 -117 25c-42.667 20.667 -64 50.667 -64 90v484h140v-487c0 -24.667 13.667 -37 41 -37s41 12.333 41 37v487h139v-484zM287.001 709l-88 -88h-76
l46 88h118z" />
    <glyph glyph-name="ucircumflex" unicode="&#xfb;" 
d="M382 99c0 -39.333 -21.332 -69.333 -63.999 -90c-32.667 -16.667 -71.334 -25 -116.001 -25c-45.333 0 -84.333 8.33301 -117 25c-42.667 20.667 -64 50.667 -64 90v484h140v-487c0 -24.667 13.667 -37 41 -37s41 12.333 41 37v487h139v-484zM342.001 622h-88l-44 52
l-43 -52h-87l78 92h105z" />
    <glyph glyph-name="udieresis" unicode="&#xfc;" 
d="M382 99c0 -39.333 -21.332 -69.333 -63.999 -90c-32.667 -16.667 -71.334 -25 -116.001 -25c-45.333 0 -84.333 8.33301 -117 25c-42.667 20.667 -64 50.667 -64 90v484h140v-487c0 -24.667 13.667 -37 41 -37s41 12.333 41 37v487h139v-484zM317.001 673
c0 -10.667 -4.33301 -19.334 -13 -26.001s-18.334 -10 -29.001 -10c-11.333 0 -21.333 3.33301 -30 10s-13 15.334 -13 26.001s4.33301 19.334 13 26.001s18.667 10 30 10c10.667 0 20.334 -3.33301 29.001 -10s13 -15.334 13 -26.001zM179.001 673
c0 -10.667 -4.16895 -19.334 -12.502 -26.001s-18.166 -10 -29.499 -10s-21.333 3.33301 -30 10s-13 15.334 -13 26.001s4.33301 19.334 13 26.001s18.667 10 30 10c10.667 0 20.334 -3.33301 29.001 -10s13 -15.334 13 -26.001z" />
    <glyph glyph-name="yacute" unicode="&#xfd;" horiz-adv-x="438" 
d="M430 583l-143 -364v-219h-143v219l-137 364h137l78 -254l77 254h131zM327 709l-88 -88h-76l46 88h118z" />
    <glyph glyph-name="thorn" unicode="&#xfe;" horiz-adv-x="397" 
d="M166 0h-139v583h139v-118c28.667 13.333 55.667 20 81 20c92 0 138 -38 138 -114v-152c0 -16 -5.66699 -33.667 -17 -53c-32 -52.667 -89.333 -79 -172 -79h-14c-8 0 -13 0.333008 -15 1v-87h-1v-1zM253 340c0 48.667 -15 73 -45 73c-27.333 0 -41 -11.667 -41 -35v-219
h4c54.667 0 82 17.333 82 52v129z" />
    <glyph glyph-name="ydieresis" unicode="&#xff;" horiz-adv-x="439" 
d="M431 583l-143 -364v-219h-143v219l-137 364h137l78 -254l77 254h131zM331 673c0 -10.667 -4.33301 -19.334 -13 -26.001s-18.334 -10 -29.001 -10c-11.333 0 -21.333 3.33301 -30 10s-13 15.334 -13 26.001s4.33301 19.334 13 26.001s18.667 10 30 10
c10.667 0 20.334 -3.33301 29.001 -10s13 -15.334 13 -26.001zM193 673c0 -10.667 -4.16895 -19.334 -12.502 -26.001s-18.166 -10 -29.499 -10s-21.333 3.33301 -30 10s-13 15.334 -13 26.001s4.33301 19.334 13 26.001s18.667 10 30 10
c10.667 0 20.334 -3.33301 29.001 -10s13 -15.334 13 -26.001z" />
    <glyph glyph-name="OE" unicode="&#x152;" horiz-adv-x="577" 
d="M555 0h-253.001c-26 -10.667 -57.667 -16 -95 -16c-45.333 0 -84.333 8.33301 -117 25c-42.667 20.667 -64 50.667 -64 90v385c0 38.667 21.667 68.667 65 90c32.667 16 71.334 24 116.001 24c30.667 0 62 -4.66699 94 -14h254v-79h-179v-148h175v-77h-175v-200h179v-80z
M206.999 527c-27.333 0 -41 -12 -41 -36v-395c0 -24.667 13.667 -37 41 -37c22.667 0 36 8.33301 40 25v417c-4 17.333 -17.333 26 -40 26z" />
    <glyph glyph-name="oe" unicode="&#x153;" horiz-adv-x="577" 
d="M555 0h-253c-26 -10.667 -57.667 -16 -95 -16c-45.333 0 -84.333 8.33301 -117 25c-42.667 20.667 -64 50.667 -64 90v385c0 38.667 21.667 68.667 65 90c32.667 16 71.334 24 116.001 24c33.333 0 64.666 -5 93.999 -15h254v-79h-179v-147h175v-77h-175v-200h179v-80z
M207 527c-27.333 0 -41 -12 -41 -36v-395c0 -24.667 13.667 -37 41 -37c22.667 0 36 8.33301 40 25v417c-4 17.333 -17.333 26 -40 26z" />
    <glyph glyph-name="Scaron" unicode="&#x160;" 
d="M71 728h88l44 -52l43 52h87l-78 -92h-105zM389 459v-71h-136v66c0 52 -16 78 -48 78c-28 0 -42 -14.333 -42 -43v-34c0 -34.667 19.667 -68.667 59 -102l106 -82c38 -33.333 57 -65 57 -95v-80c0 -74.667 -60 -112 -180 -112c-122 0 -183 48.333 -183 145v78h143v-114
c0 -24 13.333 -36 40 -36c30.667 0 46 16.667 46 50v46c0 22 -20.333 49.333 -61 82l-106 83c-38 34.667 -57 68.667 -57 102v70c0 74 59.333 111 178 111c60 0 104 -9 132 -27c34.667 -22 52 -60.333 52 -115z" />
    <glyph glyph-name="scaron" unicode="&#x161;" horiz-adv-x="400" 
d="M389 459v-71h-136v66c0 52 -16 78 -48 78c-28 0 -42 -14.333 -42 -43v-40c0 -30.667 19.667 -62.667 59 -96l106 -82c38 -33.333 57 -65 57 -95v-80c0 -74.667 -60 -112 -180 -112c-122 0 -183 48.333 -183 145v78h143v-114c0 -24 13.333 -36 40 -36
c30.667 0 46 16.667 46 50v46c0 22 -20.333 49.333 -61 82l-106 83c-38 34.667 -57 68.667 -57 102v70c0 74 59.333 111 178 111c60 0 104 -9 132 -27c34.667 -22 52 -60.333 52 -115zM76 714h88l44 -52l43 52h87l-78 -92h-105z" />
    <glyph glyph-name="Ydieresis" unicode="&#x178;" horiz-adv-x="439" 
d="M431 583l-143 -364v-219h-143v219l-137 364h137l78 -254l77 254h131zM357 673c0 -10.667 -4.33301 -19.334 -13 -26.001s-18.334 -10 -29.001 -10c-11.333 0 -21.333 3.33301 -30 10s-13 15.334 -13 26.001s4.33301 19.334 13 26.001s18.667 10 30 10
c10.667 0 20.334 -3.33301 29.001 -10s13 -15.334 13 -26.001zM219 673c0 -10.667 -4.16895 -19.334 -12.502 -26.001s-18.166 -10 -29.499 -10s-21.333 3.33301 -30 10s-13 15.334 -13 26.001s4.33301 19.334 13 26.001s18.667 10 30 10
c10.667 0 20.334 -3.33301 29.001 -10s13 -15.334 13 -26.001z" />
    <glyph glyph-name="circumflex" unicode="&#x2c6;" horiz-adv-x="296" 
d="M279 622h-88l-44 52l-43 -52h-87l78 92h105z" />
    <glyph glyph-name="caron" unicode="&#x2c7;" horiz-adv-x="292" 
d="M15 714h88l44 -52l43 52h87l-78 -92h-105z" />
    <glyph glyph-name="ring" unicode="&#x2da;" horiz-adv-x="191" 
d="M171 692c0 -20 -7.66699 -36.667 -23 -50s-33 -20 -53 -20c-20.667 0 -38.5 6.66699 -53.5 20s-22.5 30 -22.5 50s7.5 36.667 22.5 50s32.833 20 53.5 20c20 0 37.667 -6.66699 53 -20s23 -30 23 -50zM143 692c0 12.667 -4.83301 23.167 -14.5 31.5
s-20.834 12.5 -33.501 12.5c-13.333 0 -24.833 -4.16699 -34.5 -12.5s-14.5 -18.833 -14.5 -31.5s4.83301 -23.334 14.5 -32.001s21.167 -13 34.5 -13c12.667 0 23.834 4.33301 33.501 13s14.5 19.334 14.5 32.001z" />
    <glyph glyph-name="tilde" unicode="&#x2dc;" horiz-adv-x="293" 
d="M270 717c0 -35.333 -12.333 -59.333 -37 -72c-12 -6 -24 -9 -36 -9c-18.667 0 -42 7 -70 21c-26.667 14.667 -45 22 -55 22c-13.333 0 -22.333 -5 -27 -15c-2 -3.33301 -5 -12.333 -9 -27h-13c2 53.333 26.333 80 73 80c19.333 0 42.333 -7.33301 69 -22
c26.667 -14 45.667 -21 57 -21c18 0 30 14.333 36 43h12z" />
    <glyph glyph-name="endash" unicode="&#x2013;" horiz-adv-x="317" 
d="M289 202h-262v62h262v-62z" />
    <glyph glyph-name="emdash" unicode="&#x2014;" horiz-adv-x="612" 
d="M585 202h-558v62h558v-62z" />
    <glyph glyph-name="quoteleft" unicode="&#x2018;" horiz-adv-x="198" 
d="M136 774l44 -192h-79l-94 192h129z" />
    <glyph glyph-name="quoteright" unicode="&#x2019;" horiz-adv-x="199" 
d="M191 774l-95 -192h-79l44 192h130z" />
    <glyph glyph-name="quotesinglbase" unicode="&#x201a;" horiz-adv-x="199" 
d="M191 109l-95 -192h-79l44 192h130z" />
    <glyph glyph-name="quotedblleft" unicode="&#x201c;" horiz-adv-x="353" 
d="M144 774l44 -192h-79l-94 192h129zM287 774l44 -192h-79l-94 192h129z" />
    <glyph glyph-name="quotedblright" unicode="&#x201d;" horiz-adv-x="354" 
d="M196 774l-95 -192h-79l44 192h130zM339 774l-95 -192h-79l44 192h130z" />
    <glyph glyph-name="quotedblbase" unicode="&#x201e;" horiz-adv-x="354" 
d="M196 109l-95 -192h-79l44 192h130zM339 109l-95 -192h-79l44 192h130z" />
    <glyph glyph-name="bullet" unicode="&#x2022;" horiz-adv-x="358" 
d="M351 362l-93 -83l31 -121l-108 63l-105 -67l27 122l-96 80l124 12l46 116l50 -115z" />
    <glyph glyph-name="ellipsis" unicode="&#x2026;" horiz-adv-x="966" 
d="M153 0h-126v92h126v-92zM545 0h-126v92h126v-92zM937 0h-126v92h126v-92z" />
    <glyph glyph-name="guilsinglleft" unicode="&#x2039;" horiz-adv-x="230" 
d="M95 302l102 -48v-60l-156 77v59l156 81v-62z" />
    <glyph glyph-name="guillemotright" unicode="&#x203a;" horiz-adv-x="230" 
d="M143 304l-102 47v60l156 -77v-59l-156 -81v62z" />
    <glyph glyph-name="Euro" unicode="&#x20ac;" horiz-adv-x="466" 
d="M28 266h48v40h-48v61h48v122c0 74 60 111 180 111c80 0 134.667 -21 164 -63l-75 -141h-49v100c0 24 -13.333 36 -40 36s-40 -12 -40 -36v-129h114l-32 -61h-82v-40h61l-32 -61h-29v-109c0 -24.667 13.333 -37 40 -37s40 12.333 40 37v62h140v-59
c0 -76.667 -60 -115 -180 -115s-180 38.333 -180 115v106h-48v61z" />
    <glyph glyph-name="trademark" unicode="&#x2122;" horiz-adv-x="561" 
d="M173 484v-223h-59v223h-71v54h199v-54h-69zM448 414l-60 -154l-66 160v-158h-55v277h67l53 -143l52 143h65v-277h-56v152z" />
    </font>
</defs>
</svg>
